<?xml version="1.0" standalone="no"?>
<!DOCTYPE svg PUBLIC "-//W3C//DTD SVG 20010904//EN"
 "http://www.w3.org/TR/2001/REC-SVG-20010904/DTD/svg10.dtd">
<svg version="1.0" xmlns="http://www.w3.org/2000/svg"
 width="600.000000pt" height="600.000000pt" viewBox="0 0 600.000000 600.000000"
 preserveAspectRatio="xMidYMid meet">
<metadata>
Created by potrace 1.10, written by Peter Selinger 2001-2011
</metadata>
<g transform="translate(0.000000,600.000000) scale(0.100000,-0.100000)"
fill="#000000" stroke="none">
<path d="M2760 4723 c-261 -35 -419 -159 -501 -392 -15 -43 -19 -82 -19 -173
l0 -118 -242 0 c-204 0 -251 -3 -293 -17 -101 -35 -208 -123 -252 -208 -54
-106 -53 -95 -53 -416 l0 -301 29 -37 c36 -45 92 -66 147 -57 106 18 184 18
236 0 29 -10 60 -24 69 -31 8 -7 20 -13 25 -13 26 -1 101 -90 139 -164 16 -32
20 -59 20 -145 0 -127 -19 -176 -100 -257 -82 -82 -187 -123 -286 -110 -27 3
-71 9 -98 12 -69 9 -95 0 -141 -47 l-40 -41 0 -304 c0 -321 -2 -307 49 -413
24 -50 120 -146 176 -177 91 -49 134 -54 426 -54 230 0 275 2 302 16 66 34 92
86 82 158 -13 88 -10 238 5 276 25 59 87 138 132 167 84 54 114 63 214 63 84
0 101 -3 158 -30 69 -33 138 -100 173 -167 31 -60 46 -159 33 -218 -6 -27 -11
-76 -11 -108 -1 -48 4 -64 26 -93 46 -60 66 -64 364 -64 263 0 306 4 386 37
80 33 170 117 206 191 29 60 44 62 85 13 43 -49 161 -141 204 -157 8 -3 23
-10 32 -15 69 -37 217 -69 318 -69 109 0 225 27 340 79 63 28 166 107 228 176
53 58 122 165 122 190 0 8 4 16 9 19 5 3 19 39 32 78 19 63 23 94 23 223 0
155 -5 179 -59 310 -48 114 -180 265 -290 332 -44 26 -167 83 -181 83 -8 0
-42 8 -75 17 -54 15 -63 21 -76 52 -51 121 -69 148 -149 226 -106 105 -244
159 -392 154 -48 -2 -93 0 -100 5 -9 5 -12 65 -12 224 -1 220 -8 284 -44 362
-42 94 -156 194 -261 229 -55 19 -85 21 -303 21 -132 0 -243 4 -246 8 -2 4 0
30 6 57 16 75 -5 211 -48 302 -55 116 -173 229 -289 275 -63 25 -189 47 -235
41z m130 -197 c110 -35 191 -105 232 -201 31 -73 42 -146 29 -204 -16 -75 -14
-152 5 -179 9 -13 34 -37 57 -53 l40 -29 274 0 c271 0 274 0 322 -25 57 -28
116 -93 133 -144 7 -22 14 -148 17 -318 l6 -282 30 -31 c46 -49 80 -63 134
-56 135 18 193 18 239 1 94 -33 144 -69 199 -141 47 -61 42 -84 -22 -102 -256
-72 -428 -220 -528 -452 -47 -110 -49 -128 -54 -380 -2 -135 -9 -265 -15 -290
-23 -89 -81 -154 -166 -184 -32 -12 -96 -16 -264 -16 -121 -1 -224 2 -228 7
-5 4 -3 34 3 66 12 64 -1 180 -28 247 -7 19 -16 42 -19 50 -20 52 -112 165
-167 206 -57 42 -117 74 -137 74 -7 0 -27 7 -43 16 -43 22 -249 21 -310 -1
-96 -35 -172 -82 -230 -140 -60 -61 -70 -75 -106 -150 -43 -89 -53 -137 -53
-257 l0 -118 -222 0 c-262 0 -302 9 -370 84 -66 72 -68 83 -68 346 l0 240 76
-7 c243 -20 475 123 562 347 28 72 40 194 26 283 -12 85 -32 149 -52 169 -7 7
-12 16 -12 21 0 5 -14 28 -32 51 -116 152 -278 230 -465 225 l-98 -3 -3 234
c-3 223 -2 237 19 278 28 58 78 106 135 131 43 19 66 21 311 21 225 0 269 2
296 16 77 40 107 105 87 189 -20 83 -10 200 23 265 50 97 133 168 232 196 57
16 152 16 205 0z m2025 -1945 c124 -40 173 -69 262 -158 56 -55 107 -138 135
-217 41 -116 30 -331 -23 -426 -5 -8 -18 -34 -30 -57 -43 -82 -153 -181 -254
-228 -316 -148 -679 11 -797 349 -31 87 -31 265 0 353 26 73 64 144 106 196
36 43 169 147 189 147 7 0 18 5 23 10 6 6 40 19 75 30 88 26 234 26 314 1z"/>
<path d="M4725 2402 c-51 -32 -54 -41 -57 -168 l-3 -119 -122 -5 c-111 -5
-124 -7 -147 -29 -36 -34 -36 -88 0 -122 23 -22 36 -24 147 -29 l122 -5 3
-121 c2 -115 4 -122 28 -145 34 -32 94 -32 128 0 24 23 26 30 28 145 l3 121
122 5 c111 5 124 7 147 29 36 34 36 88 0 122 -23 22 -36 24 -147 29 l-122 5
-3 122 -3 121 -35 31 c-40 36 -49 37 -89 13z"/>
</g>
</svg>
