<?xml version="1.0" encoding="UTF-8"?>
<svg version="1.1" xmlns="http://www.w3.org/2000/svg" width="500" height="500">
<path d="M0 0 C1.1065323 -0.00583219 2.21306461 -0.01166439 3.35312819 -0.01767331 C5.16099032 -0.01200433 5.16099032 -0.01200433 7.00537491 -0.00622082 C8.29384835 -0.01004636 9.58232178 -0.01387191 10.90983987 -0.01781338 C14.47990565 -0.02809511 18.04987103 -0.02591111 21.61994505 -0.02163279 C25.47283861 -0.01916583 29.32570798 -0.02817946 33.17859268 -0.03567028 C40.72503205 -0.04842097 48.27143585 -0.05021044 55.81788418 -0.04787002 C61.95324329 -0.0460868 68.08859161 -0.04783658 74.22394943 -0.05209446 C75.53392041 -0.05298724 75.53392041 -0.05298724 76.87035544 -0.05389806 C78.64454093 -0.05510982 80.41872641 -0.05632396 82.19291189 -0.05754044 C98.83299848 -0.06841779 115.4730648 -0.0662528 132.11315253 -0.06015559 C147.32824429 -0.05498852 162.54327198 -0.06623598 177.75835106 -0.08525381 C193.38666686 -0.10463812 209.01495237 -0.11288703 224.64328027 -0.10913056 C233.41512042 -0.10721913 242.18690608 -0.10970028 250.95873642 -0.1238451 C258.42794537 -0.13576756 265.89706629 -0.13715423 273.36627647 -0.12505493 C277.17511543 -0.11917178 280.98379344 -0.11805103 284.79262161 -0.13005733 C288.92714308 -0.14293844 293.06128259 -0.13243803 297.1958046 -0.11974621 C298.39212312 -0.12712049 299.58844165 -0.13449478 300.82101226 -0.14209253 C312.85985296 -0.06441905 322.40202278 2.74958942 331.29596329 11.07088184 C338.50675368 18.7800422 342.4550584 27.28872351 342.51277542 37.80971241 C342.5177134 38.46649849 342.52265138 39.12328456 342.52773899 39.79997325 C342.54308559 41.99867205 342.55146688 44.19734171 342.5598793 46.39607716 C342.56946006 47.9730044 342.57947026 49.54992908 342.58987808 51.12685108 C342.61691179 55.40745307 342.63792967 59.68806606 342.65788007 63.96870613 C342.67974907 68.44238064 342.70713329 72.91602128 342.73393631 77.38966846 C342.78385082 85.8610161 342.82879427 94.33238254 342.87195867 102.80376697 C342.92134165 112.44819676 342.97625585 122.09259258 343.03163826 131.7369895 C343.14543926 151.57611986 343.25228241 171.41528268 343.35455704 191.25447559 C344.67455704 191.91447559 345.99455704 192.57447559 347.35455704 193.25447559 C347.35455704 193.91447559 347.35455704 194.57447559 347.35455704 195.25447559 C347.94855301 195.50245396 348.54254898 195.75043232 349.15454483 196.00592518 C353.2244816 198.31569474 355.34959142 202.11873163 357.35455704 206.25447559 C358.14561616 209.7386674 358.19916969 213.06256344 358.15143204 216.62556934 C358.16004257 218.06912548 358.16004257 218.06912548 358.16882706 219.54184437 C358.17288581 221.56464987 358.16198397 223.58753589 358.1367836 225.61018848 C358.10466573 228.68158104 358.13652525 231.74769882 358.17486954 234.81892872 C358.2185 252.38072645 358.2185 252.38072645 353.42193985 259.37190723 C351.35455704 261.25447559 351.35455704 261.25447559 349.43558884 262.001894 C346.82630698 263.12688191 345.26384183 264.13036527 343.35455704 266.25447559 C342.12375611 271.24632335 342.3259034 276.23148971 342.4180336 281.335042 C342.41697568 282.8942727 342.41234283 284.45350447 342.4044075 286.01271534 C342.39493554 289.36841715 342.41060806 292.72272739 342.44578171 296.07825565 C342.50118724 301.39149162 342.49989759 306.7038007 342.49097061 312.01726246 C342.48346622 320.42970121 342.51321815 328.84152407 342.55918956 337.25382555 C342.64109606 352.29500015 342.67856699 367.33618659 342.67458129 382.377581 C342.6748934 387.65096158 342.69737136 392.9236362 342.73811674 398.19685388 C342.75997652 401.49042537 342.7654516 404.78388962 342.76704216 408.07752705 C342.7712682 409.59520148 342.78233983 411.1128762 342.80108833 412.63044071 C342.95154009 425.23737749 341.11491623 435.71867791 332.35455704 445.25447559 C325.26830182 452.29174748 316.8990722 457.49675122 306.65667534 457.5117445 C305.53845945 457.51819339 304.42024356 457.52464228 303.26814234 457.5312866 C301.44072459 457.52664079 301.44072459 457.52664079 299.57638931 457.52190113 C298.27425409 457.52643224 296.97211886 457.53096336 295.63052499 457.53563178 C292.02239838 457.54785258 288.41436455 457.54760241 284.80622196 457.54524302 C280.91246299 457.54483463 277.01873368 457.5558761 273.12498856 457.56535816 C265.49901286 457.58196362 257.87306808 457.58746749 250.24707581 457.58858292 C244.04829326 457.58953352 237.8495209 457.59364442 231.65074158 457.59998417 C214.07403904 457.61759463 196.49736091 457.62682324 178.92064948 457.62532322 C177.9732921 457.62524331 177.02593472 457.6251634 176.04986954 457.62508106 C175.10135492 457.6249993 174.1528403 457.62491754 173.17558281 457.6248333 C157.80069352 457.62402025 142.42590216 457.64316318 127.0510412 457.6713578 C111.26227237 457.7000829 95.47355131 457.71389833 79.68475568 457.71217024 C70.82129682 457.71150626 61.95794064 457.71700245 53.09450531 457.73852634 C45.5487331 457.75673314 38.00311014 457.76108956 30.45732547 457.7475075 C26.6081817 457.74097553 22.75932431 457.74086869 18.91020775 457.758214 C14.73548556 457.77683299 10.56142703 457.76439647 6.38669205 457.74895191 C4.56596646 457.7643826 4.56596646 457.7643826 2.70845854 457.78012502 C-4.21472433 457.72344456 -8.72585933 456.91363578 -14.64544296 453.25447559 C-14.64544296 452.59447559 -14.64544296 451.93447559 -14.64544296 451.25447559 C-15.51169296 450.94510059 -15.51169296 450.94510059 -16.39544296 450.62947559 C-19.85901311 448.51284939 -21.92934844 445.33152937 -23.25050998 441.49946046 C-23.79866545 438.38348692 -23.77377254 435.37388434 -23.77687073 432.20971775 C-23.77892336 431.49669382 -23.780976 430.7836699 -23.78309083 430.04903919 C-23.78876839 427.64750972 -23.78730265 425.24603746 -23.78588486 422.84450245 C-23.78846806 421.11021014 -23.79148109 419.37591843 -23.79488826 417.64162755 C-23.80296677 412.8660443 -23.8047483 408.09047608 -23.80548573 403.31488681 C-23.80733479 398.16819431 -23.81488137 393.02150964 -23.82162094 387.87482166 C-23.83521066 376.61661702 -23.84122993 365.35841594 -23.8456316 354.10020447 C-23.84839284 347.07275218 -23.85262997 340.04530128 -23.85713577 333.01784992 C-23.86932909 313.56713287 -23.8796284 294.11641693 -23.88301086 274.66569614 C-23.88323043 273.42048479 -23.88345 272.17527343 -23.88367622 270.8923284 C-23.88389449 269.64411137 -23.88411277 268.39589434 -23.88433766 267.10985255 C-23.88478113 264.58042351 -23.8852277 262.05099448 -23.88567734 259.52156544 C-23.88589877 258.26687711 -23.8861202 257.01218878 -23.88634834 255.71947959 C-23.89029716 235.38466289 -23.90775348 215.04988202 -23.93103686 194.71507916 C-23.95473963 173.84584345 -23.96721222 152.97662573 -23.96837878 132.10737634 C-23.96929613 120.38674389 -23.97506345 108.66615812 -23.99319839 96.94553852 C-24.00858485 86.96599242 -24.01372843 76.98650742 -24.00546029 67.00695172 C-24.00154869 61.9143667 -24.00250832 56.82190477 -24.01651764 51.72933483 C-24.02922578 47.06717157 -24.02808621 42.40522428 -24.01592693 37.74306145 C-24.01396458 36.05664133 -24.01707313 34.37020606 -24.02577129 32.68380722 C-24.1140228 14.4167714 -24.1140228 14.4167714 -18.59466171 7.79353809 C-17.84829453 7.16189747 -17.10192734 6.53025684 -16.33294296 5.87947559 C-15.59431015 5.23236622 -14.85567734 4.58525684 -14.09466171 3.91853809 C-9.65875673 0.90466964 -5.30195618 0.00482614 0 0 Z " fill="#9D6600" transform="translate(83.64544296264648,22.745524406433105)"/>
<path d="M0 0 C1.1065323 -0.00583219 2.21306461 -0.01166439 3.35312819 -0.01767331 C5.16099032 -0.01200433 5.16099032 -0.01200433 7.00537491 -0.00622082 C8.29384835 -0.01004636 9.58232178 -0.01387191 10.90983987 -0.01781338 C14.47990565 -0.02809511 18.04987103 -0.02591111 21.61994505 -0.02163279 C25.47283861 -0.01916583 29.32570798 -0.02817946 33.17859268 -0.03567028 C40.72503205 -0.04842097 48.27143585 -0.05021044 55.81788418 -0.04787002 C61.95324329 -0.0460868 68.08859161 -0.04783658 74.22394943 -0.05209446 C75.53392041 -0.05298724 75.53392041 -0.05298724 76.87035544 -0.05389806 C78.64454093 -0.05510982 80.41872641 -0.05632396 82.19291189 -0.05754044 C98.83299848 -0.06841779 115.4730648 -0.0662528 132.11315253 -0.06015559 C147.32824429 -0.05498852 162.54327198 -0.06623598 177.75835106 -0.08525381 C193.38666686 -0.10463812 209.01495237 -0.11288703 224.64328027 -0.10913056 C233.41512042 -0.10721913 242.18690608 -0.10970028 250.95873642 -0.1238451 C258.42794537 -0.13576756 265.89706629 -0.13715423 273.36627647 -0.12505493 C277.17511543 -0.11917178 280.98379344 -0.11805103 284.79262161 -0.13005733 C288.92714308 -0.14293844 293.06128259 -0.13243803 297.1958046 -0.11974621 C298.39212312 -0.12712049 299.58844165 -0.13449478 300.82101226 -0.14209253 C312.85985296 -0.06441905 322.40202278 2.74958942 331.29596329 11.07088184 C338.50675368 18.7800422 342.4550584 27.28872351 342.51277542 37.80971241 C342.5177134 38.46649849 342.52265138 39.12328456 342.52773899 39.79997325 C342.54308559 41.99867205 342.55146688 44.19734171 342.5598793 46.39607716 C342.56946006 47.9730044 342.57947026 49.54992908 342.58987808 51.12685108 C342.61691179 55.40745307 342.63792967 59.68806606 342.65788007 63.96870613 C342.67974907 68.44238064 342.70713329 72.91602128 342.73393631 77.38966846 C342.78385082 85.8610161 342.82879427 94.33238254 342.87195867 102.80376697 C342.92134165 112.44819676 342.97625585 122.09259258 343.03163826 131.7369895 C343.14543926 151.57611986 343.25228241 171.41528268 343.35455704 191.25447559 C344.67455704 191.91447559 345.99455704 192.57447559 347.35455704 193.25447559 C347.35455704 193.91447559 347.35455704 194.57447559 347.35455704 195.25447559 C347.94855301 195.50245396 348.54254898 195.75043232 349.15454483 196.00592518 C353.2244816 198.31569474 355.34959142 202.11873163 357.35455704 206.25447559 C358.14561616 209.7386674 358.19916969 213.06256344 358.15143204 216.62556934 C358.16004257 218.06912548 358.16004257 218.06912548 358.16882706 219.54184437 C358.17288581 221.56464987 358.16198397 223.58753589 358.1367836 225.61018848 C358.10466573 228.68158104 358.13652525 231.74769882 358.17486954 234.81892872 C358.2185 252.38072645 358.2185 252.38072645 353.42193985 259.37190723 C351.35455704 261.25447559 351.35455704 261.25447559 349.43558884 262.001894 C346.82630698 263.12688191 345.26384183 264.13036527 343.35455704 266.25447559 C342.12375611 271.24632335 342.3259034 276.23148971 342.4180336 281.335042 C342.41697568 282.8942727 342.41234283 284.45350447 342.4044075 286.01271534 C342.39493554 289.36841715 342.41060806 292.72272739 342.44578171 296.07825565 C342.50118724 301.39149162 342.49989759 306.7038007 342.49097061 312.01726246 C342.48346622 320.42970121 342.51321815 328.84152407 342.55918956 337.25382555 C342.64109606 352.29500015 342.67856699 367.33618659 342.67458129 382.377581 C342.6748934 387.65096158 342.69737136 392.9236362 342.73811674 398.19685388 C342.75997652 401.49042537 342.7654516 404.78388962 342.76704216 408.07752705 C342.7712682 409.59520148 342.78233983 411.1128762 342.80108833 412.63044071 C342.95154009 425.23737749 341.11491623 435.71867791 332.35455704 445.25447559 C325.26830182 452.29174748 316.8990722 457.49675122 306.65667534 457.5117445 C305.53845945 457.51819339 304.42024356 457.52464228 303.26814234 457.5312866 C301.44072459 457.52664079 301.44072459 457.52664079 299.57638931 457.52190113 C298.27425409 457.52643224 296.97211886 457.53096336 295.63052499 457.53563178 C292.02239838 457.54785258 288.41436455 457.54760241 284.80622196 457.54524302 C280.91246299 457.54483463 277.01873368 457.5558761 273.12498856 457.56535816 C265.49901286 457.58196362 257.87306808 457.58746749 250.24707581 457.58858292 C244.04829326 457.58953352 237.8495209 457.59364442 231.65074158 457.59998417 C214.07403904 457.61759463 196.49736091 457.62682324 178.92064948 457.62532322 C177.9732921 457.62524331 177.02593472 457.6251634 176.04986954 457.62508106 C175.10135492 457.6249993 174.1528403 457.62491754 173.17558281 457.6248333 C157.80069352 457.62402025 142.42590216 457.64316318 127.0510412 457.6713578 C111.26227237 457.7000829 95.47355131 457.71389833 79.68475568 457.71217024 C70.82129682 457.71150626 61.95794064 457.71700245 53.09450531 457.73852634 C45.5487331 457.75673314 38.00311014 457.76108956 30.45732547 457.7475075 C26.6081817 457.74097553 22.75932431 457.74086869 18.91020775 457.758214 C14.73548556 457.77683299 10.56142703 457.76439647 6.38669205 457.74895191 C4.56596646 457.7643826 4.56596646 457.7643826 2.70845854 457.78012502 C-4.21472433 457.72344456 -8.72585933 456.91363578 -14.64544296 453.25447559 C-14.64544296 452.59447559 -14.64544296 451.93447559 -14.64544296 451.25447559 C-15.51169296 450.94510059 -15.51169296 450.94510059 -16.39544296 450.62947559 C-19.85901311 448.51284939 -21.92934844 445.33152937 -23.25050998 441.49946046 C-23.79866545 438.38348692 -23.77377254 435.37388434 -23.77687073 432.20971775 C-23.77892336 431.49669382 -23.780976 430.7836699 -23.78309083 430.04903919 C-23.78876839 427.64750972 -23.78730265 425.24603746 -23.78588486 422.84450245 C-23.78846806 421.11021014 -23.79148109 419.37591843 -23.79488826 417.64162755 C-23.80296677 412.8660443 -23.8047483 408.09047608 -23.80548573 403.31488681 C-23.80733479 398.16819431 -23.81488137 393.02150964 -23.82162094 387.87482166 C-23.83521066 376.61661702 -23.84122993 365.35841594 -23.8456316 354.10020447 C-23.84839284 347.07275218 -23.85262997 340.04530128 -23.85713577 333.01784992 C-23.86932909 313.56713287 -23.8796284 294.11641693 -23.88301086 274.66569614 C-23.88323043 273.42048479 -23.88345 272.17527343 -23.88367622 270.8923284 C-23.88389449 269.64411137 -23.88411277 268.39589434 -23.88433766 267.10985255 C-23.88478113 264.58042351 -23.8852277 262.05099448 -23.88567734 259.52156544 C-23.88589877 258.26687711 -23.8861202 257.01218878 -23.88634834 255.71947959 C-23.89029716 235.38466289 -23.90775348 215.04988202 -23.93103686 194.71507916 C-23.95473963 173.84584345 -23.96721222 152.97662573 -23.96837878 132.10737634 C-23.96929613 120.38674389 -23.97506345 108.66615812 -23.99319839 96.94553852 C-24.00858485 86.96599242 -24.01372843 76.98650742 -24.00546029 67.00695172 C-24.00154869 61.9143667 -24.00250832 56.82190477 -24.01651764 51.72933483 C-24.02922578 47.06717157 -24.02808621 42.40522428 -24.01592693 37.74306145 C-24.01396458 36.05664133 -24.01707313 34.37020606 -24.02577129 32.68380722 C-24.1140228 14.4167714 -24.1140228 14.4167714 -18.59466171 7.79353809 C-17.84829453 7.16189747 -17.10192734 6.53025684 -16.33294296 5.87947559 C-15.59431015 5.23236622 -14.85567734 4.58525684 -14.09466171 3.91853809 C-9.65875673 0.90466964 -5.30195618 0.00482614 0 0 Z M22.35455704 15.25447559 C21.93927525 79.19376753 21.93927525 79.19376753 21.58111954 143.13338184 C21.57600121 144.14804626 21.57088288 145.16271067 21.56560946 146.20812249 C21.34247107 190.65778336 21.23994935 235.10716512 21.23172641 279.55736804 C21.23046901 285.87472077 21.22675499 292.19206849 21.22198868 298.50941944 C21.18829818 346.43251065 21.57027094 394.3376901 22.35455704 442.25447559 C58.50866327 442.32315975 94.66275805 442.37601354 130.8169161 442.40767158 C135.08638051 442.41142365 139.35584478 442.41530662 143.62530899 442.41927052 C144.90025561 442.42045091 144.90025561 442.42045091 146.20095874 442.42165516 C159.9589002 442.4347049 173.71680401 442.45835637 187.47472315 442.48593398 C201.59426921 442.51400017 215.71379556 442.53065442 229.83336836 442.53674108 C238.54412847 442.540855 247.25478214 442.55384306 255.96550948 442.57822499 C261.94082983 442.59409716 267.91609525 442.5988726 273.89143514 442.59497973 C277.33760153 442.59306048 280.78358209 442.59597832 284.22971535 442.61209202 C287.97081297 442.6270275 291.711456 442.62342478 295.45256424 442.61523914 C296.53526893 442.62397767 297.61797362 442.63271619 298.73348755 442.64171952 C306.45562061 442.59608183 312.8814861 441.52260355 319.41705704 437.25447559 C321.70245465 435.35945276 321.70245465 435.35945276 321.35455704 432.25447559 C322.01455704 432.25447559 322.67455704 432.25447559 323.35455704 432.25447559 C328.06095751 424.44100041 327.89925979 416.64554466 327.8086586 407.8206377 C327.80752865 406.27253213 327.80816686 404.72442441 327.81042862 403.17632008 C327.81157095 398.99704376 327.7881402 394.81823159 327.76013279 390.63906264 C327.73503844 386.26289014 327.73277083 381.88670566 327.72803116 377.5104723 C327.7156249 369.23395844 327.68283529 360.95765724 327.6426332 352.6812368 C327.59784213 343.25439353 327.57591004 333.82753982 327.55585146 324.40061653 C327.51410043 305.01844922 327.44379433 285.63647954 327.35455704 266.25447559 C325.5053994 266.25693035 325.5053994 266.25693035 323.61888504 266.2594347 C275.02830146 266.31803618 275.02830146 266.31803618 254.12335587 265.99202442 C251.74225604 265.95754498 249.36104978 265.9299558 246.97980118 265.90804005 C243.41296514 265.87486784 239.84686833 265.82287053 236.28033829 265.76619434 C235.21519501 265.75980442 234.15005173 265.7534145 233.05263138 265.74683094 C231.59393883 265.7171397 231.59393883 265.7171397 230.10577774 265.68684864 C229.25635101 265.67574558 228.40692429 265.66464252 227.53175735 265.65320301 C224.86988926 265.16571466 223.99194592 264.37130618 222.35455704 262.25447559 C221.395978 259.28646885 220.93395897 256.32976276 220.35455704 253.25447559 C216.39455704 252.92447559 212.43455704 252.59447559 208.35455704 252.25447559 C208.3347377 253.54659962 208.31491837 254.83872364 208.29449844 256.17000294 C208.21857335 260.95226905 208.12983626 265.73422564 208.03717422 270.51619434 C207.99883018 272.58807241 207.96398699 274.66001828 207.93268204 276.73201466 C207.88714895 279.70589447 207.82913586 282.67930521 207.76861954 285.65291309 C207.75706833 286.58316303 207.74551712 287.51341297 207.73361588 288.4718523 C207.71374619 289.33259357 207.6938765 290.19333485 207.67340469 291.08015919 C207.66008102 291.83960835 207.64675735 292.5990575 207.63302994 293.38152027 C207.35455704 295.25447559 207.35455704 295.25447559 205.35455704 297.25447559 C203.44363785 297.53294849 203.44363785 297.53294849 201.08844376 297.57332325 C199.76730072 297.60312778 199.76730072 297.60312778 198.41946793 297.63353443 C196.99128235 297.65086124 196.99128235 297.65086124 195.53424454 297.66853809 C194.07355042 297.69758732 194.07355042 297.69758732 192.58334732 297.7272234 C189.46550701 297.78712118 186.34762998 297.8334453 183.22955704 297.87947559 C181.11886363 297.91764599 179.00818596 297.95669716 176.89752579 297.99666309 C171.7166756 298.09283086 166.53573107 298.17784823 161.35455704 298.25447559 C161.37776016 299.40045216 161.40096329 300.54642872 161.42486954 301.72713184 C161.44364182 303.25707319 161.46184045 304.78702166 161.47955704 306.31697559 C161.49631485 307.06914356 161.51307266 307.82131153 161.53033829 308.59627247 C161.57285567 313.50702975 160.92031332 317.54552201 159.35455704 322.25447559 C159.06580704 323.34760059 158.77705704 324.44072559 158.47955704 325.56697559 C157.35455704 328.25447559 157.35455704 328.25447559 155.60455704 329.44197559 C154.49080704 329.84416309 154.49080704 329.84416309 153.35455704 330.25447559 C152.4999086 330.75463184 151.64526016 331.25478809 150.76471329 331.77010059 C146.54161597 333.6083331 143.09914069 333.83076333 138.54205704 333.81697559 C137.74469131 333.8152837 136.94732559 333.8135918 136.12579727 333.81184864 C129.56263353 333.61125721 124.97826576 332.13185412 120.35455704 327.25447559 C117.02643481 322.88631516 116.22224733 318.89478953 116.25690079 313.48885059 C116.26173477 312.15467091 116.26173477 312.15467091 116.26666641 310.79353809 C116.27504532 309.87314747 116.28342422 308.95275684 116.29205704 308.00447559 C116.29656876 307.06861622 116.30108047 306.13275684 116.30572891 305.16853809 C116.31748786 302.86378518 116.33392278 300.55916333 116.35455704 298.25447559 C115.79301422 298.24416813 115.23147141 298.23386066 114.65291214 298.22324085 C108.82962238 298.11539874 103.0064944 298.00078352 97.18341446 297.88216114 C95.0076675 297.83874052 92.8318849 297.79707089 90.65607071 297.75716114 C87.53592536 297.69963058 84.41596071 297.63588737 81.29596329 297.57088184 C80.3168045 297.55416935 79.33764572 297.53745686 78.32881546 297.52023792 C77.42795715 297.5002927 76.52709885 297.48034748 75.5989418 297.45979786 C74.40314247 297.43648144 74.40314247 297.43648144 73.18318558 297.41269398 C71.35455704 297.25447559 71.35455704 297.25447559 70.35455704 296.25447559 C70.23156538 294.56738212 70.17670445 292.87526656 70.14923477 291.18391895 C70.12928955 290.10287388 70.10934433 289.0218288 70.08879471 287.90802479 C70.07208221 286.73200199 70.05536972 285.55597919 70.03815079 284.34431934 C70.01736969 283.14714787 69.99658859 281.94997639 69.97517776 280.71652699 C69.90955425 276.87507073 69.85073801 273.03354358 69.79205704 269.19197559 C69.74888399 266.59496292 69.70527011 263.99795753 69.66119766 261.40095997 C69.55385988 255.01887443 69.45211773 248.63671767 69.35455704 242.25447559 C70.79748766 242.07582671 72.24105747 241.90233519 73.6848793 241.73103809 C74.89060341 241.58529346 74.89060341 241.58529346 76.12068558 241.4366045 C78.7162505 241.2249865 80.79051967 241.5510556 83.29205704 242.25447559 C89.66281325 243.70327685 95.60382912 243.85906688 101.35455704 240.50447559 C105.27649853 236.09229142 105.69965798 232.12776195 105.53815079 226.39900684 C105.18173793 222.23580129 104.16773176 220.04156838 101.16998672 217.13997364 C97.78507445 214.87309214 96.02963979 214.79870755 91.99518204 214.89900684 C90.79764297 214.91640919 89.60010391 214.93381153 88.36627579 214.95174122 C87.1249086 214.98976856 85.88354141 215.02779591 84.60455704 215.06697559 C82.13067642 215.11899052 79.65671585 215.16737543 77.18268204 215.21150684 C75.54154434 215.25755054 75.54154434 215.25755054 73.86725235 215.30452442 C71.35455704 215.25447559 71.35455704 215.25447559 70.35455704 214.25447559 C70.25594542 212.63849874 70.22656941 211.01823321 70.22516251 209.39925098 C70.22201035 208.3647028 70.21885818 207.33015461 70.2156105 206.26425648 C70.21763474 205.13825535 70.21965897 204.01225422 70.22174454 202.85213184 C70.22078781 201.7040958 70.21983109 200.55605976 70.21884537 199.37323475 C70.21816329 196.93952346 70.22001946 194.50581037 70.22418594 192.07210255 C70.22952893 188.33662817 70.22424434 184.6012743 70.21783829 180.86580372 C70.21849916 178.50707949 70.21978051 176.14835534 70.22174454 173.78963184 C70.21972031 172.66565495 70.21769608 171.54167805 70.2156105 170.38364124 C70.22033875 168.82709072 70.22033875 168.82709072 70.22516251 167.23909473 C70.2259581 166.32277775 70.22675369 165.40646076 70.22757339 164.46237659 C70.35455704 162.25447559 70.35455704 162.25447559 71.35455704 160.25447559 C93.62955704 159.75947559 93.62955704 159.75947559 116.35455704 159.25447559 C116.02455704 154.63447559 115.69455704 150.01447559 115.35455704 145.25447559 C116.24686048 137.49143567 117.86567316 132.08423222 123.89752579 126.93806934 C128.4353115 124.06313668 133.16214269 123.87901069 138.41705704 123.81697559 C139.08970596 123.80674366 139.76235489 123.79651173 140.45538712 123.78596973 C146.18914415 123.8862176 150.83013258 125.13969405 155.28033829 128.86775684 C155.73795547 129.42849903 156.19557266 129.98924122 156.66705704 130.56697559 C157.13756485 131.11998341 157.60807266 131.67299122 158.09283829 132.24275684 C163.50017042 140.86435452 161.35455704 148.6692785 161.35455704 159.25447559 C183.62955704 159.74947559 183.62955704 159.74947559 206.35455704 160.25447559 C207.50747388 162.56030928 207.50853041 163.95314446 207.5598793 166.52058887 C207.57982452 167.4013509 207.59976974 168.28211292 207.62031937 169.1895647 C207.64538811 170.61775028 207.64538811 170.61775028 207.67096329 172.07478809 C207.69174438 173.04858418 207.71252548 174.02238026 207.73393631 175.02568531 C207.79944302 178.14354206 207.85832201 181.26148463 207.91705704 184.37947559 C207.96024119 186.49016163 208.00385544 188.60083892 208.04791641 190.71150684 C208.15512556 195.89240796 208.25638987 201.07339558 208.35455704 206.25447559 C212.31455704 205.92447559 216.27455704 205.59447559 220.35455704 205.25447559 C220.62268204 203.48072559 220.89080704 201.70697559 221.16705704 199.87947559 C221.62408829 196.85603809 221.62408829 196.85603809 222.35455704 194.25447559 C225.43930705 192.19797559 226.0992361 192.00174733 229.58763504 191.97600269 C230.45000275 191.96483921 231.31237045 191.95367573 232.20087051 191.94217396 C233.14386002 191.94001377 234.08684952 191.93785358 235.05841446 191.93562794 C236.05371674 191.92558231 237.04901901 191.91553669 238.07448196 191.90518665 C241.36965727 191.87425564 244.66475098 191.85729188 247.96002579 191.84041309 C250.24261049 191.82170944 252.52518823 191.80213663 254.80775833 191.78172779 C260.81975578 191.73031591 266.83177567 191.69073864 272.84387589 191.65358448 C278.97705044 191.61360158 285.11013093 191.56248321 291.24322891 191.51228809 C303.28027229 191.41542157 315.31736868 191.33105113 327.35455704 191.25447559 C327.44805942 170.7920415 327.51856519 150.32965085 327.56180573 129.86704731 C327.58241803 120.36558351 327.61051316 110.86425256 327.65631485 101.36287403 C327.6962234 93.08004526 327.72199953 84.79731272 327.73091102 76.51439047 C327.73611897 72.12989639 327.7483317 67.74567759 327.77747726 63.36127186 C327.80470995 59.23100083 327.81298626 55.1011174 327.80698776 50.97076511 C327.8080845 49.45830012 327.81599173 47.94582161 327.83137894 46.43343449 C327.92240279 37.0219381 327.56303971 30.20563168 321.22955704 22.75447559 C319.4944627 21.04624391 319.4944627 21.04624391 317.35455704 21.25447559 C317.35455704 20.59447559 317.35455704 19.93447559 317.35455704 19.25447559 C309.57454055 15.59329137 306.00435631 16.25447559 296.35455704 16.25447559 C296.35455704 64.43447559 296.35455704 112.61447559 296.35455704 162.25447559 C295.69455704 162.25447559 295.03455704 162.25447559 294.35455704 162.25447559 C294.02455704 163.24447559 293.69455704 164.23447559 293.35455704 165.25447559 C290.49554299 166.68398262 288.53092636 166.55826879 285.35455704 166.25447559 C282.56549454 164.60213184 282.56549454 164.60213184 279.72955704 162.31697559 C278.18268204 161.09881153 278.18268204 161.09881153 276.60455704 159.85603809 C276.07346329 159.42968067 275.54236954 159.00332325 274.99518204 158.56404591 C272.27543579 156.3931056 269.50448363 154.2915882 266.72955704 152.19197559 C265.74729141 151.43787403 264.76502579 150.68377247 263.75299454 149.90681934 C261.56547827 148.06536711 261.56547827 148.06536711 259.35455704 148.25447559 C259.35455704 147.59447559 259.35455704 146.93447559 259.35455704 146.25447559 C255.06818939 147.68585789 252.20964956 149.82646865 248.79205704 152.75447559 C245.75467889 155.34951712 243.0354582 157.66086191 239.35455704 159.25447559 C239.35455704 159.91447559 239.35455704 160.57447559 239.35455704 161.25447559 C238.0212237 161.92114226 236.68789037 162.58780893 235.35455704 163.25447559 C233.96236954 164.05885059 233.96236954 164.05885059 232.54205704 164.87947559 C228.9117633 166.44548466 226.2674896 166.48925155 222.35455704 166.25447559 C221.32702407 162.85570056 221.21749475 159.73490351 221.19633865 156.19276905 C221.18656463 154.95296913 221.1767906 153.71316921 221.16672039 152.4357996 C221.16080638 151.0592779 221.15498119 149.68275582 221.14923477 148.30623341 C221.13951717 146.8339342 221.12937158 145.36163777 221.11883259 143.88934422 C221.09179318 139.94683265 221.07061123 136.00430996 221.05064011 132.06175709 C221.03101281 128.36213807 221.00610632 124.66256195 220.98163223 120.96297169 C220.91313485 110.14350528 220.85311394 99.32398655 220.79205704 88.50447559 C220.64768204 64.33197559 220.50330704 40.15947559 220.35455704 15.25447559 C155.01455704 15.25447559 89.67455704 15.25447559 22.35455704 15.25447559 Z " fill="#060404" transform="translate(83.64544296264648,22.745524406433105)"/>
<path d="M0 0 C1.010625 -0.00773438 2.02125 -0.01546875 3.0625 -0.0234375 C7.27662092 0.54815869 9.75284695 2.1874934 12.796875 5.0859375 C14.51051455 8.34630365 14.35976956 11.41279791 14.25 15 C14.23573975 16.06371826 14.23573975 16.06371826 14.22119141 17.14892578 C14.12756836 21.99419385 13.75479454 26.76023581 13.0234375 31.5546875 C13.01570313 32.15539062 13.00796875 32.75609375 13 33.375 C15.42005138 35.79505138 16.04311221 35.63829238 19.35791016 35.69384766 C20.70908432 35.72365219 20.70908432 35.72365219 22.08755493 35.75405884 C23.06155243 35.76561005 24.03554993 35.77716125 25.0390625 35.7890625 C26.53305069 35.81811172 26.53305069 35.81811172 28.05722046 35.8477478 C31.2463925 35.90764965 34.43560043 35.95397138 37.625 36 C39.78387013 36.03817001 41.94272488 36.07722116 44.1015625 36.1171875 C49.40090534 36.2133597 54.70034043 36.29837589 60 36.375 C60.0154612 37.21731422 60.0154612 37.21731422 60.03123474 38.0766449 C60.13907685 43.89993466 60.25369208 49.72306264 60.37231445 55.54614258 C60.41573507 57.72188953 60.45740471 59.89767214 60.49731445 62.07348633 C60.55484502 65.19363168 60.61858823 68.31359633 60.68359375 71.43359375 C60.70030624 72.41275253 60.71701874 73.39191132 60.73423767 74.40074158 C60.75418289 75.30159988 60.77412811 76.20245819 60.79467773 77.13061523 C60.81799416 78.32641457 60.81799416 78.32641457 60.84178162 79.54637146 C60.80400665 81.39351382 60.80400665 81.39351382 62 82.375 C63.85737722 82.42590771 65.71664665 82.41040349 67.57421875 82.3671875 C68.71697266 82.35042969 69.85972656 82.33367187 71.03710938 82.31640625 C73.45133422 82.27248777 75.86542763 82.2205358 78.27929688 82.16015625 C89.58520125 82.02065547 89.58520125 82.02065547 94 85.375 C97.52740198 90.08162066 96.72655768 96.83836141 96 102.375 C94.68320035 105.76185335 93.17150272 107.59065922 90 109.375 C83.09906068 111.19315141 76.51155595 110.44763403 69.66796875 108.75 C66.27747975 108.14746238 66.27747975 108.14746238 60 109.375 C60 124.555 60 139.735 60 155.375 C36.735 155.87 36.735 155.87 13 156.375 C12.9050626 162.88594643 12.9050626 162.88594643 14 168.375 C14.14387968 170.85139061 14.2205008 173.33210858 14.25 175.8125 C14.27578125 177.11058594 14.3015625 178.40867187 14.328125 179.74609375 C13.97777625 183.62078405 13.43188363 185.37743909 11 188.375 C7.3358247 191.20978427 4.58927015 191.78512197 0 191.75 C-1.010625 191.75773438 -2.02125 191.76546875 -3.0625 191.7734375 C-6.41421193 191.318817 -8.28219649 190.35762106 -11 188.375 C-14.78090481 183.15995888 -14.50521865 177.5639285 -14 171.375 C-13.67 170.385 -13.34 169.395 -13 168.375 C-12.90661782 166.50186336 -12.87005157 164.62545638 -12.875 162.75 C-12.87242187 161.76773438 -12.86984375 160.78546875 -12.8671875 159.7734375 C-12.72994035 157.42274989 -12.72994035 157.42274989 -14 156.375 C-15.41117702 156.25290076 -16.82820459 156.19729128 -18.24438477 156.16967773 C-19.14524307 156.14973251 -20.04610138 156.12978729 -20.97425842 156.10923767 C-21.95341721 156.09252518 -22.93257599 156.07581268 -23.94140625 156.05859375 C-24.93881332 156.03781265 -25.9362204 156.01703156 -26.96385193 155.99562073 C-30.16332843 155.93001363 -33.36288982 155.87118866 -36.5625 155.8125 C-38.72592039 155.76932538 -40.88933206 155.72571145 -43.05273438 155.68164062 C-48.36840369 155.57349073 -53.68413347 155.47450049 -59 155.375 C-59 143.495 -59 131.615 -59 119.375 C-48.875 119 -48.875 119 -45.71826172 118.89697266 C-40.80743832 118.68822252 -36.60375176 118.28160426 -32 116.375 C-32 115.715 -32 115.055 -32 114.375 C-31.38125 114.313125 -30.7625 114.25125 -30.125 114.1875 C-27.79047839 113.56577693 -27.79047839 113.56577693 -26.875 111.1875 C-26.58625 110.259375 -26.2975 109.33125 -26 108.375 C-25.6596875 107.46878906 -25.319375 106.56257813 -24.96875 105.62890625 C-22.89497836 98.66337489 -22.57635231 90.27534948 -25.9375 83.6875 C-26.9584375 82.0478125 -26.9584375 82.0478125 -28 80.375 C-28.33 79.385 -28.66 78.395 -29 77.375 C-31.03010445 76.38679035 -31.03010445 76.38679035 -33.4375 75.75 C-37.93625498 74.40687251 -37.93625498 74.40687251 -40 73.375 C-41.4465242 73.22432786 -42.8987934 73.12638964 -44.3515625 73.05859375 C-45.11807129 73.02048584 -45.88458008 72.98237793 -46.67431641 72.94311523 C-47.64804199 72.90001221 -48.62176758 72.85690918 -49.625 72.8125 C-52.71875 72.668125 -55.8125 72.52375 -59 72.375 C-59 60.495 -59 48.615 -59 36.375 C-55.84695312 36.31441406 -52.69390625 36.25382812 -49.4453125 36.19140625 C-46.40052828 36.12964521 -43.35578229 36.06624577 -40.31103516 36.00268555 C-38.19062687 35.95930248 -36.07018288 35.91762993 -33.94970703 35.87768555 C-30.90646592 35.82006457 -27.8634051 35.75634675 -24.8203125 35.69140625 C-23.39212692 35.66633751 -23.39212692 35.66633751 -21.93508911 35.64076233 C-21.05432709 35.62081711 -20.17356506 35.60087189 -19.26611328 35.58032227 C-18.10029221 35.55700584 -18.10029221 35.55700584 -16.91091919 35.53321838 C-14.91443065 35.48716749 -14.91443065 35.48716749 -13 34.375 C-12.972807 32.79176312 -12.95351694 31.20838938 -12.9375 29.625 C-12.92589844 28.74328125 -12.91429687 27.8615625 -12.90234375 26.953125 C-12.99273506 24.56679444 -13.41430058 22.67308779 -14 20.375 C-14.48688968 14.17651982 -14.78996257 8.60253457 -11 3.375 C-7.26212348 0.64824191 -4.60139536 -0.03521476 0 0 Z " fill="#9024F0" transform="translate(222,155.625)"/>
<path d="M0 0 C0.98484375 0.02707031 1.9696875 0.05414063 2.984375 0.08203125 C3.73203125 0.11683594 4.4796875 0.15164062 5.25 0.1875 C5.40148926 45.35916141 5.54651423 90.53083975 5.6832476 135.70254836 C5.69951242 141.0740786 5.71582903 146.44560868 5.73217773 151.81713867 C5.73543066 152.88620628 5.73868358 153.95527388 5.74203508 155.05673748 C5.79435692 172.21191563 5.85084402 189.36707755 5.9089582 206.52223695 C5.96879797 224.21513271 6.02395852 241.90803892 6.07505554 259.6009621 C6.10377296 269.50078326 6.13445497 279.40058912 6.17053413 289.30038643 C6.33573439 334.94304141 6.22447397 380.55334845 5.25 426.1875 C3.47950311 426.24160687 1.70853151 426.28034119 -0.0625 426.3125 C-1.04863281 426.33570313 -2.03476563 426.35890625 -3.05078125 426.3828125 C-5.75 426.1875 -5.75 426.1875 -8.75 424.1875 C-9.91260917 420.69967249 -9.87902328 417.9807845 -9.88422108 414.29867554 C-9.88657331 413.59037259 -9.88892554 412.88206965 -9.89134905 412.15230298 C-9.8980462 409.76086255 -9.89758061 407.36947637 -9.89717102 404.97802734 C-9.90046917 403.25340886 -9.90419464 401.52879115 -9.9083125 399.80417442 C-9.91834564 395.05088529 -9.92205138 390.29760879 -9.92470181 385.54431057 C-9.92860081 380.42359821 -9.93817922 375.3028959 -9.94691467 370.18218994 C-9.96668747 357.8110575 -9.97674498 345.43992424 -9.98564246 333.06877995 C-9.99002282 327.24838774 -9.99539017 321.42799646 -10.00063133 315.60760498 C-10.01764216 296.27015369 -10.03213858 276.93270298 -10.03938007 257.59524536 C-10.04129007 252.57586669 -10.04321039 247.55648803 -10.04516602 242.53710938 C-10.04564976 241.28951584 -10.0461335 240.0419223 -10.0466319 238.75652289 C-10.05494063 218.52495079 -10.08029241 198.29343765 -10.11274669 178.06189132 C-10.14576693 157.30910292 -10.16382415 136.55634455 -10.16702431 115.80352974 C-10.16919377 104.14394601 -10.17800616 92.48444834 -10.20348549 80.82489014 C-10.22512355 70.90006201 -10.23327695 60.97534085 -10.22351871 51.05049181 C-10.2189543 45.98279886 -10.22098375 40.91532693 -10.24028015 35.84766388 C-10.25777231 31.2140406 -10.25702887 26.58080184 -10.24138286 21.94717526 C-10.23898543 20.26552224 -10.24343946 18.58384355 -10.25521151 16.90223002 C-10.27016387 14.62645178 -10.26077619 12.35206577 -10.24498463 10.07632446 C-10.24596144 8.80930506 -10.24693824 7.54228565 -10.24794465 6.23687172 C-9.75 3.1875 -9.75 3.1875 -8.07843846 1.26866722 C-5.20476688 -0.06566889 -3.15611727 -0.11271847 0 0 Z " fill="#754C01" transform="translate(85.75,38.8125)"/>
<path d="M0 0 C15.18 0 30.36 0 46 0 C46 42.9 46 85.8 46 130 C42.13010778 128.45204311 40.23575336 127.62399648 37.22265625 125.14453125 C36.54396484 124.60505859 35.86527344 124.06558594 35.16601562 123.50976562 C33.76028195 122.37551997 32.36182286 121.23220063 30.97070312 120.08007812 C26.80565944 116.7185317 26.80565944 116.7185317 21.62109375 116.01953125 C18.54897435 117.16871451 17.23221526 118.62827129 15 121 C9.64285714 124 9.64285714 124 7 124 C6.67 124.99 6.34 125.98 6 127 C1.66666667 130 1.66666667 130 -1 130 C-1.02332875 113.19776179 -1.04097906 96.39552861 -1.05181217 79.59327793 C-1.05697518 71.79224164 -1.06401797 63.99121539 -1.07543945 56.19018555 C-1.08538615 49.39323687 -1.09185339 42.59629546 -1.09408849 35.79933971 C-1.09539563 32.19821869 -1.09848164 28.59711848 -1.10573006 24.9960041 C-1.11374364 20.98243398 -1.11399115 16.96890036 -1.11352539 12.95532227 C-1.11712067 11.75267227 -1.12071594 10.55002228 -1.12442017 9.31092834 C-1.1230455 8.22412781 -1.12167084 7.13732727 -1.12025452 6.01759338 C-1.12117631 5.06722482 -1.1220981 4.11685625 -1.12304783 3.13768864 C-1 1 -1 1 0 0 Z " fill="#AB0000" transform="translate(319,38)"/>
<path d="M0 0 C13.36038973 -0.09260404 26.72070334 -0.16371644 40.08134842 -0.20724869 C46.28497895 -0.22814003 52.48839021 -0.25648643 58.69189453 -0.30175781 C64.67653311 -0.34515958 70.66096053 -0.36912545 76.64574432 -0.37950897 C78.93116328 -0.38691048 81.21657044 -0.40136354 83.50189972 -0.42292023 C86.69846236 -0.45187816 89.89414801 -0.4559591 93.09082031 -0.45410156 C94.03956528 -0.46848267 94.98831024 -0.48286377 95.96580505 -0.49768066 C102.33780186 -0.45750734 102.33780186 -0.45750734 105.58499146 1.78594971 C107.76372834 5.19499841 107.61051779 8.64196159 107.6015625 12.5625 C107.61013275 13.39080322 107.618703 14.21910645 107.62753296 15.07250977 C107.63899996 16.82076364 107.64003431 18.56911292 107.63134766 20.31738281 C107.6250192 22.99188721 107.67197209 25.66197925 107.72265625 28.3359375 C107.7272019 30.03645276 107.72860938 31.7369799 107.7265625 33.4375 C107.74498199 34.23551025 107.76340149 35.03352051 107.78237915 35.85571289 C107.74462891 38.12109375 107.74462891 38.12109375 107 42 C101.99290718 46.58331758 97.52923831 46.55551358 90.95556641 46.45410156 C89.46195587 46.45497772 89.46195587 46.45497772 87.93817139 46.45587158 C84.65894263 46.45309303 81.38063175 46.42201089 78.1015625 46.390625 C75.82327776 46.38316182 73.54498658 46.37746925 71.26669312 46.37347412 C65.27917666 46.35822399 59.2920502 46.31894697 53.3046875 46.2746582 C47.19145991 46.23369244 41.07816912 46.21546028 34.96484375 46.1953125 C22.97639144 46.15245257 10.98822819 46.08420832 -1 46 C-0.67 44.68 -0.34 43.36 0 42 C0.66 42 1.32 42 2 42 C2 41.34 2 40.68 2 40 C2.66 40 3.32 40 4 40 C7.6856724 31.83886827 10.07480184 21.39552321 7.2421875 12.6640625 C5.38228817 8.7245907 3.13990716 6.02776762 0 3 C0 2.01 0 1.02 0 0 Z " fill="#754C01" transform="translate(319,229)"/>
<path d="M0 0 C15.18 0 30.36 0 46 0 C46 42.9 46 85.8 46 130 C41 128 41 128 40 126 C41.32 126.33 42.64 126.66 44 127 C44 85.75 44 44.5 44 2 C23.21 2.495 23.21 2.495 2 3 C0.76175771 5.47648458 0.8615352 7.13891847 0.84178162 9.9100647 C0.8319928 10.94775497 0.82220398 11.98544525 0.81211853 13.05458069 C0.80636307 14.19753098 0.8006076 15.34048126 0.79467773 16.51806641 C0.78477814 17.71804764 0.77487854 18.91802887 0.76467896 20.15437317 C0.73845742 23.44959893 0.71660936 26.74480002 0.69667697 30.04006624 C0.67483227 33.48209033 0.64743618 36.92407004 0.62062073 40.36605835 C0.57067329 46.88604706 0.52574209 53.40606038 0.48259836 59.92609727 C0.43324349 67.34803893 0.37831889 74.76993607 0.32291877 82.19183469 C0.20906725 97.461182 0.10223513 112.73057023 0 128 C1.485 127.01 1.485 127.01 3 126 C3.99 126.33 4.98 126.66 6 127 C1.25 130 1.25 130 -1 130 C-1.02332875 113.19776179 -1.04097906 96.39552861 -1.05181217 79.59327793 C-1.05697518 71.79224164 -1.06401797 63.99121539 -1.07543945 56.19018555 C-1.08538615 49.39323687 -1.09185339 42.59629546 -1.09408849 35.79933971 C-1.09539563 32.19821869 -1.09848164 28.59711848 -1.10573006 24.9960041 C-1.11374364 20.98243398 -1.11399115 16.96890036 -1.11352539 12.95532227 C-1.11712067 11.75267227 -1.12071594 10.55002228 -1.12442017 9.31092834 C-1.1230455 8.22412781 -1.12167084 7.13732727 -1.12025452 6.01759338 C-1.12117631 5.06722482 -1.1220981 4.11685625 -1.12304783 3.13768864 C-1 1 -1 1 0 0 Z " fill="#780707" transform="translate(319,38)"/>
<path d="M0 0 C0.66 0.33 1.32 0.66 2 1 C0.33333333 2.66666667 -1.33333333 4.33333333 -3 6 C-3.721875 6.763125 -4.44375 7.52625 -5.1875 8.3125 C-7 10 -7 10 -9 10 C-9.33 11.32 -9.66 12.64 -10 14 C-10.66 14 -11.32 14 -12 14 C-12.02287884 67.76854654 -12.04050458 121.53709258 -12.05106533 175.30564303 C-12.05231607 181.65062075 -12.05361039 187.99559846 -12.05493164 194.34057617 C-12.05519395 195.60377005 -12.05545626 196.86696392 -12.05572652 198.1684364 C-12.06008021 218.63349843 -12.06796611 239.09855765 -12.0771528 259.56361801 C-12.08649769 280.555892 -12.09205739 301.54816452 -12.09408849 322.5404405 C-12.09546198 335.49828253 -12.09980317 348.45611663 -12.10791647 361.41395622 C-12.11319422 370.29440904 -12.11480194 379.17485776 -12.11350138 388.05531204 C-12.11285962 393.18213427 -12.11385731 398.30894263 -12.11920547 403.43576241 C-12.12406483 408.12819176 -12.12432189 412.8205979 -12.12089889 417.51302832 C-12.12047571 419.2116616 -12.12175004 420.91029633 -12.12488318 422.60892678 C-12.128893 424.91681874 -12.1267348 427.22462677 -12.12304783 429.53251743 C-12.12342755 430.81483299 -12.12380727 432.09714854 -12.1241985 433.41832215 C-11.9996056 437.01137395 -11.57559505 440.45356778 -11 444 C-14.72597195 440.27402805 -14.1264622 436.02655434 -14.13142776 430.95524216 C-14.1334804 430.24221823 -14.13553303 429.5291943 -14.13764787 428.79456359 C-14.14332542 426.39303412 -14.14185969 423.99156187 -14.14044189 421.59002686 C-14.14302509 419.85573455 -14.14603813 418.12144284 -14.1494453 416.38715196 C-14.15752381 411.61156871 -14.15930534 406.83600049 -14.16004276 402.06041121 C-14.16189183 396.91371872 -14.16943841 391.76703405 -14.17617798 386.62034607 C-14.1897677 375.36214143 -14.19578697 364.10394035 -14.20018864 352.84572887 C-14.20294988 345.81827659 -14.20718701 338.79082568 -14.21169281 331.76337433 C-14.22388613 312.31265728 -14.23418544 292.86194134 -14.2375679 273.41122055 C-14.23778747 272.16600919 -14.23800703 270.92079784 -14.23823325 269.6378528 C-14.23845153 268.38963577 -14.23866981 267.14141875 -14.2388947 265.85537696 C-14.23933817 263.32594792 -14.23978473 260.79651888 -14.24023438 258.26708984 C-14.2404558 257.01240151 -14.24067723 255.75771318 -14.24090537 254.465004 C-14.2448542 234.1301873 -14.26231051 213.79540642 -14.2855939 193.46060356 C-14.30929667 172.59136786 -14.32176926 151.72215013 -14.32293582 130.85290074 C-14.32385317 119.1322683 -14.32962049 107.41168253 -14.34775543 95.69106293 C-14.36314188 85.71151683 -14.36828547 75.73203183 -14.36001733 65.75247613 C-14.35610573 60.65989111 -14.35706536 55.56742918 -14.37107468 50.47485924 C-14.38378281 45.81269598 -14.38264324 41.15074869 -14.37048396 36.48858586 C-14.36852161 34.80216573 -14.37163017 33.11573047 -14.38032833 31.42933163 C-14.46959582 12.95199952 -14.46959582 12.95199952 -8.80859375 6.50390625 C-8.02613281 5.86324219 -7.24367188 5.22257812 -6.4375 4.5625 C-5.65246094 3.90378906 -4.86742188 3.24507812 -4.05859375 2.56640625 C-2 1 -2 1 0 0 Z " fill="#949494" transform="translate(74,24)"/>
<path d="M0 0 C0.33 0 0.66 0 1 0 C1.15148926 45.17166141 1.29651423 90.34333975 1.4332476 135.51504836 C1.44951242 140.8865786 1.46582903 146.25810868 1.48217773 151.62963867 C1.48543066 152.69870628 1.48868358 153.76777388 1.49203508 154.86923748 C1.54435692 172.02441563 1.60084402 189.17957755 1.6589582 206.33473695 C1.71879797 224.02763271 1.77395852 241.72053892 1.82505554 259.4134621 C1.85377296 269.31328326 1.88445497 279.21308912 1.92053413 289.11288643 C2.08573439 334.75554141 1.97447397 380.36584845 1 426 C-0.77049689 426.05410687 -2.54146849 426.09284119 -4.3125 426.125 C-5.29863281 426.14820313 -6.28476563 426.17140625 -7.30078125 426.1953125 C-10 426 -10 426 -13 424 C-13.51171875 421.8359375 -13.51171875 421.8359375 -13.6875 419.375 C-13.78611328 418.14910156 -13.78611328 418.14910156 -13.88671875 416.8984375 C-13.92410156 416.27195312 -13.96148437 415.64546875 -14 415 C-13.67 415 -13.34 415 -13 415 C-12.71125 415.928125 -12.4225 416.85625 -12.125 417.8125 C-11.1125 421.09791667 -11.1125 421.09791667 -9 424 C-6.03 424.33 -3.06 424.66 0 425 C0 284.75 0 144.5 0 0 Z " fill="#694D1B" transform="translate(90,39)"/>
<path d="M0 0 C1.33804688 0.04060547 1.33804688 0.04060547 2.703125 0.08203125 C3.37859375 0.11683594 4.0540625 0.15164062 4.75 0.1875 C4.42 1.1775 4.09 2.1675 3.75 3.1875 C3.75 2.5275 3.75 1.8675 3.75 1.1875 C0.45 1.5175 -2.85 1.8475 -6.25 2.1875 C-7.02003191 6.96735328 -7.37821281 11.55003274 -7.3886652 16.38948727 C-7.39150742 17.08304389 -7.39434964 17.77660052 -7.39727798 18.49117401 C-7.4055804 20.8083321 -7.40688967 23.1254399 -7.40821838 25.44261169 C-7.41278677 27.12332322 -7.4177872 28.80403362 -7.42318195 30.4847427 C-7.43674094 35.09796375 -7.44417493 39.71117744 -7.45060861 44.32441318 C-7.45862239 49.30116885 -7.47231681 54.27790926 -7.48532104 59.25465393 C-7.50706991 67.87548278 -7.52522022 76.49631318 -7.54092598 85.11715508 C-7.56363908 97.58144399 -7.59177992 110.04571601 -7.62124526 122.50999058 C-7.6689035 142.732483 -7.71217248 162.95498233 -7.75268555 183.17749023 C-7.79204946 202.82170144 -7.83347785 222.4659065 -7.87768555 242.11010742 C-7.88040982 243.32098856 -7.88313409 244.5318697 -7.88594092 245.77944421 C-7.89962054 251.85408278 -7.91334079 257.92872125 -7.92708123 264.00335968 C-8.04101823 314.3980603 -8.14783374 364.79277423 -8.25 415.1875 C-8.58 415.1875 -8.91 415.1875 -9.25 415.1875 C-9.34147631 362.75221888 -9.41199841 310.31694579 -9.45426132 257.88160063 C-9.45926438 251.69670172 -9.46444165 245.51180297 -9.46972656 239.3269043 C-9.4707758 238.09555794 -9.47182505 236.86421159 -9.47290608 235.59555171 C-9.49033014 215.63538685 -9.52187881 195.67526789 -9.55861118 175.71513029 C-9.59596499 155.24720406 -9.61822406 134.77930193 -9.62635398 114.31134301 C-9.63185331 101.67281473 -9.64924697 89.03441614 -9.68166587 76.39592776 C-9.70274517 67.73928735 -9.70921503 59.08271438 -9.70400551 50.42605015 C-9.70143344 45.4252064 -9.70548521 40.42458991 -9.7268219 35.42378616 C-9.74619035 30.8511127 -9.74733369 26.27882079 -9.73359558 21.7061303 C-9.73189598 20.04659171 -9.73705225 18.38702995 -9.74953273 16.72753742 C-9.76545011 14.48155019 -9.75701951 12.23696318 -9.74219131 9.99100018 C-9.7437102 8.74058113 -9.74522908 7.49016208 -9.74679399 6.20185155 C-9.25 3.1875 -9.25 3.1875 -7.38037086 1.28059179 C-4.74469119 -0.07177359 -2.94616335 -0.11629592 0 0 Z " fill="#6E4C0E" transform="translate(85.25,38.8125)"/>
<path d="M0 0 C2 1 2 1 3.10996819 3.15002728 C4.13870549 6.44414913 4.24599183 9.14814459 4.24050903 12.5995636 C4.24221788 13.249037 4.24392673 13.89851039 4.24568737 14.5676648 C4.24897174 16.73573453 4.23799621 18.90349217 4.22705078 21.0715332 C4.22648644 22.62890109 4.22680368 24.18626951 4.22793579 25.74363708 C4.22850941 29.96639353 4.21675366 34.18903626 4.20278788 38.41176629 C4.19028201 42.82668496 4.18911013 47.24160627 4.18673706 51.65653992 C4.18052188 60.01456682 4.16411052 68.37254137 4.14403808 76.73054522 C4.11749942 88.02632202 4.10670675 99.32211314 4.09503365 110.61791325 C4.07622997 128.41198137 4.03638454 146.20593903 4 164 C-29 164 -62 164 -96 164 C-96 163.67 -96 163.34 -96 163 C-63.66 162.67 -31.32 162.34 2 162 C1.85124244 134.21774571 1.85124244 134.21774571 1.69335938 106.43554688 C1.62696172 95.10865636 1.56157911 83.78176634 1.50268555 72.45483398 C1.45979211 64.20607164 1.4135011 55.95733658 1.36312145 47.70861644 C1.3365621 43.34055646 1.31171008 38.97250176 1.29092598 34.60441017 C1.27131 30.49309576 1.24715148 26.38183307 1.21950912 22.27056503 C1.21016494 20.76170862 1.20248026 19.25284087 1.19658089 17.74396706 C1.18827482 15.68312143 1.17398588 13.62239984 1.15821838 11.56159973 C1.15176583 10.40843671 1.14531328 9.25527369 1.1386652 8.06716633 C1.01194 5.26410344 0.63942842 2.72660785 0 0 Z " fill="#714F14" transform="translate(407,50)"/>
<path d="M0 0 C4.6265617 4.20299724 5.77168741 9.25794744 6.28098106 15.37460518 C6.40907797 19.48895962 6.4371501 23.59338113 6.43237305 27.70922852 C6.44140195 29.28689842 6.45173192 30.86456132 6.46325684 32.44221497 C6.49072064 36.70189554 6.50009684 40.96144262 6.50611091 45.22120023 C6.51552235 49.68153196 6.54172791 54.14176507 6.56611633 58.60203552 C6.60970901 67.03779955 6.63830033 75.47354435 6.66143972 83.90938658 C6.68853024 93.51769196 6.73243932 103.12589778 6.77772844 112.73413193 C6.87047109 132.48936765 6.94219927 152.24463317 7 172 C8.32 172.66 9.64 173.32 11 174 C11 174.66 11 175.32 11 176 C6.125 174.125 6.125 174.125 5 173 C4.87962799 169.83943457 4.82445746 166.69980511 4.81054688 163.53808594 C4.80225357 162.54042709 4.79396027 161.54276825 4.78541565 160.51487732 C4.7586798 157.17139452 4.73885993 153.82790368 4.71875 150.484375 C4.70066935 148.12412116 4.68206456 145.76387129 4.66296387 143.40362549 C4.61317543 137.1241915 4.56880943 130.84473205 4.52606201 124.56524658 C4.39207164 104.95024847 4.23838754 85.33553534 4.03747559 65.72109985 C4.01220018 63.21140458 3.98788901 60.70169944 3.96447754 58.19198608 C3.89478247 50.72135309 3.81036887 43.25117869 3.70335388 35.78098297 C3.67224573 33.45938463 3.6460772 31.13771421 3.62513733 28.81600189 C3.59520356 25.61427903 3.54699473 22.41332931 3.49414062 19.21191406 C3.48933685 18.27539757 3.48453308 17.33888107 3.47958374 16.37398529 C3.36362097 10.80900771 2.45578759 6.99268656 0 2 C0 1.34 0 0.68 0 0 Z " fill="#555555" transform="translate(420,42)"/>
<path d="M0 0 C0 0.66 0 1.32 0 2 C-3.80221476 4.51164578 -7.67640171 4.26250978 -12.0625 4.1875 C-12.78244141 4.18685547 -13.50238281 4.18621094 -14.24414062 4.18554688 C-17.41749137 4.15902862 -19.97049394 4.00983535 -23 3 C-23 13.89 -23 24.78 -23 36 C-18.39611328 35.96519531 -18.39611328 35.96519531 -13.69921875 35.9296875 C-10.73055434 35.91409541 -7.76189446 35.90194814 -4.79321289 35.89013672 C-2.728088 35.88007165 -0.66297737 35.86641846 1.40209961 35.84912109 C4.36836264 35.82489507 7.33443744 35.81352203 10.30078125 35.8046875 C11.2258699 35.79436493 12.15095856 35.78404236 13.1040802 35.77340698 C13.96474594 35.77325592 14.82541168 35.77310486 15.7121582 35.77294922 C16.46938675 35.768508 17.2266153 35.76406677 18.00679016 35.75949097 C20 36 20 36 23 38 C24.16417169 46.97538821 22.6422488 56.1729127 21 65 C20.67 65 20.34 65 20 65 C19.97294271 63.22925083 19.95357805 61.45838289 19.9375 59.6875 C19.92589844 58.70136719 19.91429687 57.71523438 19.90234375 56.69921875 C20 54 20 54 21 51 C21.09338218 49.12686336 21.12994843 47.25045638 21.125 45.375 C21.12757813 44.39273438 21.13015625 43.41046875 21.1328125 42.3984375 C21.27005965 40.04774989 21.27005965 40.04774989 20 39 C18.58882298 38.87790076 17.17179541 38.82229128 15.75561523 38.79467773 C14.85475693 38.77473251 13.95389862 38.75478729 13.02574158 38.73423767 C12.04658279 38.71752518 11.06742401 38.70081268 10.05859375 38.68359375 C8.56248314 38.6524221 8.56248314 38.6524221 7.03614807 38.62062073 C3.83667157 38.55501363 0.63711018 38.49618866 -2.5625 38.4375 C-4.72592039 38.39432538 -6.88933206 38.35071145 -9.05273438 38.30664062 C-14.36840369 38.19849073 -19.68413347 38.09950049 -25 38 C-25 26.12 -25 14.24 -25 2 C-14.625 1.5625 -14.625 1.5625 -11.35791016 1.43188477 C-10.08633057 1.3747229 -10.08633057 1.3747229 -8.7890625 1.31640625 C-7.91975098 1.27974854 -7.05043945 1.24309082 -6.15478516 1.20532227 C-3.82207279 0.98304591 -2.33729851 0 0 0 Z " fill="#7D30C3" transform="translate(188,273)"/>
<path d="M0 0 C1.28250475 3.84751424 0.6695516 6.75040184 0.15625 10.72265625 C-0.05493843 15.15233352 0.55872999 19.58729992 1 24 C-13.85 24.33 -28.7 24.66 -44 25 C-45.25274723 27.50549445 -45.12029624 29.19735632 -45.11352539 32.00048828 C-45.11344986 33.04141632 -45.11337433 34.08234436 -45.11329651 35.15481567 C-45.10813522 36.28192963 -45.10297394 37.40904358 -45.09765625 38.5703125 C-45.0962413 39.72167694 -45.09482635 40.87304138 -45.09336853 42.05929565 C-45.08775716 45.74788986 -45.0752027 49.43642405 -45.0625 53.125 C-45.05748647 55.62109288 -45.05292331 58.1171867 -45.04882812 60.61328125 C-45.03778403 66.74220809 -45.0210348 72.87109976 -45 79 C-42.69 79.66 -40.38 80.32 -38 81 C-38 81.33 -38 81.66 -38 82 C-40.64 82 -43.28 82 -46 82 C-47.86183847 78.82457553 -48.25603007 76.48248199 -48.2746582 72.82006836 C-48.28419022 71.78897446 -48.29372223 70.75788055 -48.30354309 69.69554138 C-48.30263168 68.58816116 -48.30172028 67.48078094 -48.30078125 66.33984375 C-48.30506638 65.19842422 -48.3093515 64.0570047 -48.31376648 62.8809967 C-48.31950703 60.46941796 -48.32001207 58.05782191 -48.31567383 55.64624023 C-48.31250908 51.94810669 -48.33599406 48.25076929 -48.36132812 44.55273438 C-48.36360058 42.21093851 -48.36430487 39.86914049 -48.36328125 37.52734375 C-48.372491 36.4179393 -48.38170074 35.30853485 -48.39118958 34.16551208 C-48.38496078 33.13757034 -48.37873199 32.1096286 -48.37231445 31.05053711 C-48.37294388 30.14548935 -48.3735733 29.24044159 -48.3742218 28.30796814 C-48 26 -48 26 -46.74472046 24.20562744 C-44.56589681 22.70002832 -43.34759546 22.63623816 -40.7121582 22.65942383 C-39.85149246 22.65965042 -38.99082672 22.65987701 -38.1040802 22.66011047 C-36.71644722 22.68333626 -36.71644722 22.68333626 -35.30078125 22.70703125 C-33.87550362 22.71339851 -33.87550362 22.71339851 -32.4214325 22.71989441 C-29.38483412 22.73669516 -26.34889798 22.77435008 -23.3125 22.8125 C-21.25456687 22.82754503 -19.19662335 22.84123375 -17.13867188 22.85351562 C-12.09198716 22.88405224 -7.04673534 22.94277117 -2 23 C-2 16.07 -2 9.14 -2 2 C-1.34 2 -0.68 2 0 2 C0 1.34 0 0.68 0 0 Z " fill="#8B6316" transform="translate(199,158)"/>
<path d="M0 0 C3.96 0.33 7.92 0.66 12 1 C12.495 5.455 12.495 5.455 13 10 C12.34 9.67 11.68 9.34 11 9 C11 6.69 11 4.38 11 2 C9.72125 2.185625 8.4425 2.37125 7.125 2.5625 C3.25 3.125 3.25 3.125 1 2 C1.02094727 3.25135742 1.04189453 4.50271484 1.06347656 5.79199219 C1.13589394 10.43608145 1.18180618 15.08012083 1.21972656 19.72460938 C1.23983805 21.73446038 1.26713115 23.74425291 1.30175781 25.75390625 C1.35029634 28.64337596 1.37297322 31.53207191 1.390625 34.421875 C1.41127014 35.31992859 1.43191528 36.21798218 1.45318604 37.14324951 C1.45451643 40.84467362 1.38652619 43.30213491 -0.42578125 46.57421875 C-4.40359537 48.77740867 -8.10650781 48.49342195 -12.578125 48.390625 C-13.5046991 48.38496521 -14.43127319 48.37930542 -15.38592529 48.37347412 C-18.34114562 48.35110921 -21.29514705 48.30091262 -24.25 48.25 C-26.2551908 48.22993515 -28.26040064 48.21168435 -30.265625 48.1953125 C-35.17792902 48.15464773 -40.08760266 48.07635851 -45 48 C-45 54.6 -45 61.2 -45 68 C-45.99 68.495 -45.99 68.495 -47 69 C-47 61.41 -47 53.82 -47 46 C-43.84695312 45.95101562 -40.69390625 45.90203125 -37.4453125 45.8515625 C-34.40050397 45.79759386 -31.35577589 45.7402702 -28.31103516 45.68261719 C-26.1906531 45.64427158 -24.07020474 45.60942867 -21.94970703 45.578125 C-18.90633402 45.53259534 -15.86341968 45.47458161 -12.8203125 45.4140625 C-11.39212692 45.39673569 -11.39212692 45.39673569 -9.93508911 45.37905884 C-9.05432709 45.35918915 -8.17356506 45.33931946 -7.26611328 45.31884766 C-6.48889923 45.30552399 -5.71168518 45.29220032 -4.91091919 45.2784729 C-2.7611053 45.15960424 -2.7611053 45.15960424 -1 43 C-0.6706462 41.0631387 -0.6706462 41.0631387 -0.68115234 38.82568359 C-0.66128265 37.96494232 -0.64141296 37.10420105 -0.62094116 36.21737671 C-0.60938995 35.28712677 -0.59783875 34.35687683 -0.5859375 33.3984375 C-0.56657135 32.44683746 -0.5472052 31.49523743 -0.5272522 30.51480103 C-0.46735868 27.46829253 -0.42103205 24.42174646 -0.375 21.375 C-0.33682921 19.3124833 -0.29777802 17.2499827 -0.2578125 15.1875 C-0.16164914 10.12513034 -0.07765437 5.06268605 0 0 Z " fill="#8D6517" transform="translate(292,275)"/>
<path d="M0 0 C2.31 0 4.62 0 7 0 C7 0.33 7 0.66 7 1 C5.02 1 3.04 1 1 1 C1 12.88 1 24.76 1 37 C5.83785156 36.96519531 5.83785156 36.96519531 10.7734375 36.9296875 C13.88769131 36.91410227 17.00194082 36.9019511 20.11621094 36.89013672 C22.28517594 36.88006211 24.45412731 36.86640202 26.62304688 36.84912109 C29.73571126 36.82493677 32.84819651 36.81353168 35.9609375 36.8046875 C36.934935 36.79436493 37.9089325 36.78404236 38.91244507 36.77340698 C40.26361923 36.77318039 40.26361923 36.77318039 41.64208984 36.77294922 C42.43706879 36.768508 43.23204773 36.76406677 44.05111694 36.75949097 C46 37 46 37 48 39 C48.23046875 41.49609375 48.23046875 41.49609375 48.1875 44.4375 C48.18105469 45.40558594 48.17460937 46.37367188 48.16796875 47.37109375 C48 50 48 50 47 53 C46.77820215 54.89212737 46.59385985 56.78884472 46.4375 58.6875 C46.35371094 59.68136719 46.26992187 60.67523438 46.18359375 61.69921875 C46.09271484 62.83810547 46.09271484 62.83810547 46 64 C45.67 64 45.34 64 45 64 C44.97315321 61.35409986 44.95323643 58.70846904 44.9375 56.0625 C44.92912109 55.30775391 44.92074219 54.55300781 44.91210938 53.77539062 C44.90347559 51.85005687 44.94775667 49.92464419 45 48 C45.33 47.67 45.66 47.34 46 47 C46 44.69 46 42.38 46 40 C30.82 39.67 15.64 39.34 0 39 C0 26.13 0 13.26 0 0 Z " fill="#210042" transform="translate(162,274)"/>
<path d="M0 0 C1.9375 1.0625 1.9375 1.0625 3 3 C3.5 6.4375 3.5 6.4375 3 10 C0.8125 12.5 0.8125 12.5 -2 14 C-5.63174437 14.08857913 -6.73400825 13.25199218 -9.375 10.75 C-11 8 -11 8 -10.9375 5.375 C-8.70348032 -0.28451653 -5.95981446 -0.63855155 0 0 Z " fill="#070201" transform="translate(406,245)"/>
<path d="M0 0 C0.33 0.66 0.66 1.32 1 2 C35.32 1.34 69.64 0.68 105 0 C102 3 102 3 100.03788471 3.36914349 C99.28846702 3.36637811 98.53904932 3.36361273 97.766922 3.36076355 C96.90455429 3.36488754 96.04218658 3.36901154 95.15368652 3.3732605 C94.21069702 3.36247467 93.26770752 3.35168884 92.29614258 3.34057617 C91.3008403 3.34101425 90.30553802 3.34145233 89.28007507 3.34190369 C85.98469542 3.33981084 82.68982222 3.31645601 79.39453125 3.29296875 C77.11195656 3.28737457 74.82937828 3.28310363 72.54679871 3.28010559 C66.53465863 3.26864285 60.52273545 3.23916319 54.51068115 3.20599365 C48.37759333 3.17532366 42.24447051 3.16160681 36.11132812 3.14648438 C24.07412337 3.11429502 12.03707971 3.06308127 0 3 C0 2.01 0 1.02 0 0 Z " fill="#533A0D" transform="translate(318,272)"/>
<path d="M0 0 C14.85 0 29.7 0 45 0 C45 6.6 45 13.2 45 20 C45.495 22.97 45.495 22.97 46 26 C45.34 26 44.68 26 44 26 C44 24.68 44 23.36 44 22 C43.34 22 42.68 22 42 22 C42 15.4 42 8.8 42 2 C28.14 2 14.28 2 0 2 C0 1.34 0 0.68 0 0 Z " fill="#8E6619" transform="translate(155,321)"/>
<path d="M0 0 C0.66 0.33 1.32 0.66 2 1 C0.33333333 2.66666667 -1.33333333 4.33333333 -3 6 C-3.721875 6.763125 -4.44375 7.52625 -5.1875 8.3125 C-7 10 -7 10 -9 10 C-9.33 11.32 -9.66 12.64 -10 14 C-10.66 14 -11.32 14 -12 14 C-12.33 41.39 -12.66 68.78 -13 97 C-13.33 97 -13.66 97 -14 97 C-14.06964775 86.7075049 -14.1228862 76.41506628 -14.15543652 66.12238312 C-14.17106257 61.3425715 -14.19224475 56.56292166 -14.22631836 51.78320312 C-14.2590212 47.1666455 -14.27687602 42.55024305 -14.28463173 37.93357849 C-14.29015567 36.17619893 -14.30094249 34.41882742 -14.31719017 32.66151428 C-14.33911002 30.19147687 -14.34196091 27.72207284 -14.34057617 25.25195312 C-14.351362 24.53265625 -14.36214783 23.81335938 -14.3732605 23.07226562 C-14.33570278 16.84181096 -13.02174717 11.30284571 -8.80859375 6.50390625 C-8.02613281 5.86324219 -7.24367188 5.22257812 -6.4375 4.5625 C-5.65246094 3.90378906 -4.86742188 3.24507812 -4.05859375 2.56640625 C-2 1 -2 1 0 0 Z " fill="#969696" transform="translate(74,24)"/>
<path d="M0 0 C0.99 0.33 1.98 0.66 3 1 C4.57306028 5.2001566 4.26134668 9.82353281 4.3125 14.25 C4.34150391 15.07113281 4.37050781 15.89226562 4.40039062 16.73828125 C4.46134373 22.65542067 3.3530917 27.0726038 0 32 C-0.99 32.99 -1.98 33.98 -3 35 C15.15 35 33.3 35 52 35 C52 35.33 52 35.66 52 36 C32.86 36 13.72 36 -6 36 C-6 35.01 -6 34.02 -6 33 C-5.34 33 -4.68 33 -4 33 C-4 32.34 -4 31.68 -4 31 C-3.34 31 -2.68 31 -2 31 C2.04340824 22.0467389 3.59171704 11.86945657 1 2.3125 C0.67 1.549375 0.34 0.78625 0 0 Z " fill="#6B4C0E" transform="translate(325,238)"/>
<path d="M0 0 C0.33 0 0.66 0 1 0 C1.19441368 2.2910905 1.38033135 4.58290337 1.5625 6.875 C1.66691406 8.15117187 1.77132812 9.42734375 1.87890625 10.7421875 C2 14 2 14 1 16 C1.54679413 15.99555878 2.09358826 15.99111755 2.6569519 15.98654175 C8.33426304 15.94238644 14.01152561 15.91216621 19.68896484 15.89013672 C21.8094277 15.88006249 23.92987661 15.86640267 26.05029297 15.84912109 C29.09345943 15.82493511 32.13644266 15.81353131 35.1796875 15.8046875 C36.13181122 15.79436493 37.08393494 15.78404236 38.06491089 15.77340698 C38.94567291 15.77325592 39.82643494 15.77310486 40.73388672 15.77294922 C41.51110077 15.768508 42.28831482 15.76406677 43.08908081 15.75949097 C45 16 45 16 47 18 C47.2784729 19.98684692 47.2784729 19.98684692 47.31884766 22.44970703 C47.33871735 23.37051056 47.35858704 24.29131409 47.37905884 25.24002075 C47.39061005 26.23589203 47.40216125 27.23176331 47.4140625 28.2578125 C47.43342865 29.27600067 47.4527948 30.29418884 47.4727478 31.3432312 C47.53265355 34.60373489 47.57897299 37.86427367 47.625 41.125 C47.66316965 43.33204687 47.70222077 45.53907869 47.7421875 47.74609375 C47.83836394 53.16392911 47.92337899 58.58185473 48 64 C47.34 64 46.68 64 46 64 C45.98969254 63.45320587 45.97938507 62.90641174 45.96876526 62.3430481 C45.86080672 56.66558615 45.74620026 50.98828636 45.62768555 45.31103516 C45.58430248 43.19062687 45.54262993 41.07018288 45.50268555 38.94970703 C45.44506457 35.90646592 45.38134675 32.8634051 45.31640625 29.8203125 C45.29969376 28.86818878 45.28298126 27.91606506 45.26576233 26.93508911 C45.2358445 25.61394608 45.2358445 25.61394608 45.20532227 24.26611328 C45.18200584 23.10029221 45.18200584 23.10029221 45.15821838 21.91091919 C45.11216749 19.91443065 45.11216749 19.91443065 44 18 C29.15 17.67 14.3 17.34 -1 17 C-0.67 11.39 -0.34 5.78 0 0 Z " fill="#926615" transform="translate(246,165)"/>
<path d="M0 0 C0.85395355 -0.00274933 1.7079071 -0.00549866 2.58773804 -0.0083313 C3.98819618 0.00245453 3.98819618 0.00245453 5.41694641 0.01345825 C6.40249512 0.0131662 7.38804382 0.01287415 8.40345764 0.01257324 C11.66626236 0.01396837 14.92883971 0.02953831 18.19160461 0.04519653 C20.45176061 0.04892601 22.71191822 0.05177329 24.97207642 0.05377197 C30.92497714 0.06141356 36.87778049 0.08106663 42.8306427 0.10317993 C48.9034239 0.12362701 54.9762208 0.13277126 61.04902649 0.14285278 C72.96768909 0.16431197 84.88627939 0.1984543 96.80488586 0.24050903 C96.80488586 0.57050903 96.80488586 0.90050903 96.80488586 1.24050903 C95.55874008 1.24415466 94.3125943 1.24780029 93.02868652 1.2515564 C81.30069599 1.28845351 69.57296931 1.34616812 57.84517956 1.42441177 C51.81537962 1.4639674 45.78572749 1.49611619 39.7558136 1.51150513 C33.93958632 1.52661844 28.12376518 1.56096906 22.30771828 1.60881805 C20.08573748 1.62368693 17.86369871 1.63155318 15.64166832 1.63239288 C12.53571844 1.63474773 9.43090464 1.6617079 6.32514954 1.6946106 C5.40086151 1.68958023 4.47657349 1.68454987 3.52427673 1.67936707 C-1.36698268 1.58379926 -1.36698268 1.58379926 -5.16513062 4.27462769 C-5.50502518 4.92336853 -5.84491974 5.57210937 -6.19511414 6.24050903 C-6.85511414 6.24050903 -7.51511414 6.24050903 -8.19511414 6.24050903 C-7.88261414 4.36550903 -7.88261414 4.36550903 -7.19511414 2.24050903 C-4.10617344 0.18121524 -3.48559611 -0.00865987 0 0 Z " fill="#140A00" transform="translate(313.1951141357422,213.75949096679688)"/>
<path d="M0 0 C0.33 0 0.66 0 1 0 C1 10.56 1 21.12 1 32 C5.60388672 31.96519531 5.60388672 31.96519531 10.30078125 31.9296875 C13.26944566 31.91409541 16.23810554 31.90194814 19.20678711 31.89013672 C21.271912 31.88007165 23.33702263 31.86641846 25.40209961 31.84912109 C28.36836264 31.82489507 31.33443744 31.81352203 34.30078125 31.8046875 C35.2258699 31.79436493 36.15095856 31.78404236 37.1040802 31.77340698 C37.96474594 31.77325592 38.82541168 31.77310486 39.7121582 31.77294922 C40.46938675 31.768508 41.2266153 31.76406677 42.00679016 31.75949097 C44 32 44 32 47 34 C48.16417169 42.97538821 46.6422488 52.1729127 45 61 C44.67 61 44.34 61 44 61 C43.97294271 59.22925083 43.95357805 57.45838289 43.9375 55.6875 C43.92589844 54.70136719 43.91429687 53.71523438 43.90234375 52.69921875 C44 50 44 50 45 47 C45.11829437 45.1485555 45.17514861 43.29267862 45.1875 41.4375 C45.20167969 40.46683594 45.21585938 39.49617188 45.23046875 38.49609375 C45.25207746 35.82601084 45.25207746 35.82601084 43 34 C41.0631387 33.6706462 41.0631387 33.6706462 38.82568359 33.68115234 C37.96494232 33.66128265 37.10420105 33.64141296 36.21737671 33.62094116 C35.28712677 33.60938995 34.35687683 33.59783875 33.3984375 33.5859375 C32.44683746 33.56657135 31.49523743 33.5472052 30.51480103 33.5272522 C27.46829253 33.46735868 24.42174646 33.42103205 21.375 33.375 C19.3124833 33.33682921 17.2499827 33.29777802 15.1875 33.2578125 C10.12508261 33.15998801 5.06284157 33.08049706 0 33 C0 22.11 0 11.22 0 0 Z " fill="#8328D5" transform="translate(164,277)"/>
<path d="M0 0 C0.33 0 0.66 0 1 0 C1.07408977 6.06890175 1.12857359 12.13754097 1.16479492 18.20678711 C1.17989271 20.27193791 1.20037274 22.3370566 1.22631836 24.40209961 C1.26265795 27.36840739 1.2797163 30.33429171 1.29296875 33.30078125 C1.30845261 34.2258699 1.32393646 35.15095856 1.33988953 36.1040802 C1.34011612 36.96474594 1.34034271 37.82541168 1.34057617 38.7121582 C1.34723801 39.46938675 1.35389984 40.2266153 1.36076355 41.00679016 C0.89024632 43.6063864 0.13478027 44.46825152 -2 46 C-3.99320984 46.36076355 -3.99320984 46.36076355 -6.2878418 46.34057617 C-7.14850754 46.34034958 -8.00917328 46.34012299 -8.8959198 46.33988953 C-10.28355278 46.31666374 -10.28355278 46.31666374 -11.69921875 46.29296875 C-12.64940384 46.28872391 -13.59958893 46.28447906 -14.5785675 46.28010559 C-17.61516588 46.26330484 -20.65110202 46.22564992 -23.6875 46.1875 C-25.74543313 46.17245497 -27.80337665 46.15876625 -29.86132812 46.14648438 C-34.90780748 46.11339671 -39.95379144 46.06160462 -45 46 C-45 45.67 -45 45.34 -45 45 C-43.76846191 44.98541748 -42.53692383 44.97083496 -41.26806641 44.95581055 C-36.70933642 44.89794348 -32.15110643 44.82071068 -27.59277344 44.73754883 C-25.61792094 44.70424472 -23.642972 44.67623003 -21.66796875 44.65356445 C-18.83291423 44.62011878 -15.998748 44.56780954 -13.1640625 44.51171875 C-11.83430893 44.50213387 -11.83430893 44.50213387 -10.47769165 44.49235535 C-9.246642 44.46266411 -9.246642 44.46266411 -7.99072266 44.43237305 C-7.26680328 44.42126999 -6.54288391 44.41016693 -5.79702759 44.39872742 C-3.58351797 44.12509493 -3.58351797 44.12509493 -2 41 C-1.34 41 -0.68 41 0 41 C0 27.47 0 13.94 0 0 Z " fill="#241200" transform="translate(291,275)"/>
<path d="M0 0 C0.75 1.6875 0.75 1.6875 1 4 C-0.8125 6.75 -0.8125 6.75 -3 9 C-3.66 9 -4.32 9 -5 9 C-5 9.66 -5 10.32 -5 11 C-5.99 11 -6.98 11 -8 11 C-8 11.66 -8 12.32 -8 13 C-17.17540018 15.71863709 -28.06846305 16.75520096 -36.82421875 12.01171875 C-38.25270235 11.06054928 -39.63106953 10.03504499 -41 9 C-41.66 8.67 -42.32 8.34 -43 8 C-43 6.35 -43 4.7 -43 3 C-42.55269531 3.39832031 -42.10539063 3.79664063 -41.64453125 4.20703125 C-41.03996094 4.73683594 -40.43539062 5.26664062 -39.8125 5.8125 C-39.22082031 6.33457031 -38.62914062 6.85664063 -38.01953125 7.39453125 C-32.6554495 11.65882061 -28.91560746 12.54975593 -22.1875 12.5 C-21.38376953 12.49935547 -20.58003906 12.49871094 -19.75195312 12.49804688 C-13.4808152 12.33960737 -9.88654016 11.0721168 -5 7 C-4.34 7 -3.68 7 -3 7 C-2.690625 6.030625 -2.38125 5.06125 -2.0625 4.0625 C-1 1 -1 1 0 0 Z " fill="#7F5B14" transform="translate(244,344)"/>
<path d="M0 0 C0.33 0 0.66 0 1 0 C3.29649041 8.18124707 5.28798844 18.75761871 1.79296875 26.765625 C-1.02643422 30.27912935 -3.48017954 31.81426636 -7.97265625 32.36328125 C-8.99230469 32.34652344 -10.01195312 32.32976562 -11.0625 32.3125 C-12.08472656 32.30863281 -13.10695312 32.30476563 -14.16015625 32.30078125 C-16.94132634 32.0062144 -18.62614466 31.42886736 -21 30 C-17.69005287 28.34502644 -14.00877 28.89915665 -10.375 28.9375 C-9.57320312 28.94201172 -8.77140625 28.94652344 -7.9453125 28.95117188 C-5.96350994 28.96296832 -3.98174567 28.98090395 -2 29 C-1.7834375 28.071875 -1.7834375 28.071875 -1.5625 27.125 C-1 25 -1 25 0 23 C0.66 23 1.32 23 2 23 C1.855625 21.92621094 1.71125 20.85242188 1.5625 19.74609375 C1.37476571 18.30992644 1.18727891 16.87372676 1 15.4375 C0.90460938 14.73302734 0.80921875 14.02855469 0.7109375 13.30273438 C0.13333583 8.82632145 -0.09489383 4.51338762 0 0 Z " fill="#7B2BC6" transform="translate(233,315)"/>
<path d="M0 0 C0.67289062 -0.02126953 1.34578125 -0.04253906 2.0390625 -0.06445312 C6.68694646 -0.09660252 9.86110022 0.69575222 13.75 3.25 C16.19508898 6.4724294 16.07966219 9.79654279 16.125 13.75 C16.15335937 14.8740625 16.18171875 15.998125 16.2109375 17.15625 C15.66347565 20.8307397 14.59226673 21.95821181 11.75 24.25 C11.99363281 23.20005859 11.99363281 23.20005859 12.2421875 22.12890625 C12.77822075 19.09001007 12.88279767 16.27147718 12.875 13.1875 C12.87757813 12.16527344 12.88015625 11.14304688 12.8828125 10.08984375 C12.76793538 7.63350068 12.45775041 5.59231684 11.75 3.25 C8.03111134 2.3867399 4.60703512 2.13278444 0.79296875 2.15234375 C-0.31884766 2.15556641 -1.43066406 2.15878906 -2.57617188 2.16210938 C-3.72666016 2.17048828 -4.87714844 2.17886719 -6.0625 2.1875 C-7.23232422 2.19201172 -8.40214844 2.19652344 -9.60742188 2.20117188 C-12.48833358 2.2129307 -15.36914044 2.22936574 -18.25 2.25 C-18.25 1.92 -18.25 1.59 -18.25 1.25 C-12.18012268 0.43290113 -6.11865817 0.09595682 0 0 Z " fill="#7327B8" transform="translate(302.25,237.75)"/>
<path d="M0 0 C3.43255666 2.96448075 4.83115638 6.13870311 5.24050903 10.65132141 C5.23606781 11.59952255 5.23162659 12.54772369 5.22705078 13.5246582 C5.22689972 14.60540115 5.22674866 15.6861441 5.22659302 16.79963684 C5.21627045 17.9550145 5.20594788 19.11039215 5.1953125 20.30078125 C5.19106766 22.08804878 5.19106766 22.08804878 5.18673706 23.91142273 C5.17555433 27.71188456 5.1504528 31.51210956 5.125 35.3125 C5.11496775 37.89127263 5.10584233 40.47004897 5.09765625 43.04882812 C5.0756212 49.36596603 5.04216232 55.68296609 5 62 C4.67 62 4.34 62 4 62 C3.99413376 61.35155624 3.98826752 60.70311249 3.98222351 60.03501892 C3.91815886 53.26988826 3.83370512 46.50522755 3.73754883 39.74047852 C3.70434871 37.21775519 3.67630158 34.69495846 3.65356445 32.17211914 C3.61992904 28.54020994 3.56760633 24.90897043 3.51171875 21.27734375 C3.50213387 19.59257179 3.50213387 19.59257179 3.49235535 17.87376404 C3.37853483 11.77525994 2.79008753 7.4312281 0 2 C0 1.34 0 0.68 0 0 Z " fill="#0F0F0F" transform="translate(420,42)"/>
<path d="M0 0 C0.33 0 0.66 0 1 0 C1 14.52 1 29.04 1 44 C4.63 44.66 8.26 45.32 12 46 C12 46.33 12 46.66 12 47 C10.37536158 47.05395478 8.75021459 47.09277195 7.125 47.125 C6.22007812 47.14820313 5.31515625 47.17140625 4.3828125 47.1953125 C2 47 2 47 0 45 C-0.24050903 43.05111694 -0.24050903 43.05111694 -0.22705078 40.64208984 C-0.22689972 39.74130707 -0.22674866 38.84052429 -0.22659302 37.91244507 C-0.21627045 36.93844757 -0.20594788 35.96445007 -0.1953125 34.9609375 C-0.1924826 33.96494537 -0.18965271 32.96895325 -0.18673706 31.94277954 C-0.1755184 28.75339882 -0.15041081 25.56429622 -0.125 22.375 C-0.11497238 20.21614988 -0.10584615 18.05729537 -0.09765625 15.8984375 C-0.07557361 10.59886301 -0.04207958 5.29945137 0 0 Z " fill="#100026" transform="translate(282,192)"/>
<path d="M0 0 C1.3650091 2.73001819 0.8702431 4.52686132 0.5625 7.5625 C-0.15055025 15.71686951 -0.08813038 23.82345893 0 32 C-0.66 31.67 -1.32 31.34 -2 31 C-1.98839844 30.32453125 -1.97679687 29.6490625 -1.96484375 28.953125 C-1.95582031 28.06109375 -1.94679687 27.1690625 -1.9375 26.25 C-1.92009766 24.92742187 -1.92009766 24.92742187 -1.90234375 23.578125 C-1.99273506 21.19179444 -2.41430058 19.29808779 -3 17 C-3.49890457 10.64856111 -3.57818229 5.51636436 0 0 Z " fill="#7626C0" transform="translate(211,159)"/>
<path d="M0 0 C0 0.66 0 1.32 0 2 C1.65 2.66 3.3 3.32 5 4 C2 5 2 5 -0.4375 4.3125 C-1.283125 4.209375 -2.12875 4.10625 -3 4 C-5.14589423 5.89586384 -5.14589423 5.89586384 -7 8 C-7.99 8 -8.98 8 -10 8 C-10 8.66 -10 9.32 -10 10 C-10.99 10 -11.98 10 -13 10 C-13 10.66 -13 11.32 -13 12 C-16 14 -16 14 -19 14 C-19 14.99 -19 15.98 -19 17 C-20.32 16.67 -21.64 16.34 -23 16 C-22.01 15.67 -21.02 15.34 -20 15 C-20 14.34 -20 13.68 -20 13 C-18.59345313 12.01457495 -17.17937579 11.03807556 -15.72851562 10.11914062 C-11.85042821 7.60824335 -8.26570087 4.64767978 -4.609375 1.828125 C-2 0 -2 0 0 0 Z " fill="#835D0F" transform="translate(343,169)"/>
<path d="M0 0 C0.33 0 0.66 0 1 0 C1 1.65 1 3.3 1 5 C1.99 5 2.98 5 4 5 C4 5.99 4 6.98 4 8 C18.52 8 33.04 8 48 8 C48 8.33 48 8.66 48 9 C41.64631803 9.07597749 35.29275291 9.12856897 28.9387207 9.16479492 C26.77656679 9.17989444 24.61444357 9.20037571 22.45239258 9.22631836 C19.347091 9.26265017 16.24219386 9.27971462 13.13671875 9.29296875 C12.16788254 9.30845261 11.19904633 9.32393646 10.20085144 9.33988953 C8.84979057 9.34022942 8.84979057 9.34022942 7.47143555 9.34057617 C6.67867722 9.34723801 5.88591888 9.35389984 5.06913757 9.36076355 C2.44690151 8.90356476 1.56290181 8.12816843 0 6 C-0.1875 2.8125 -0.1875 2.8125 0 0 Z " fill="#100029" transform="translate(234,183)"/>
<path d="M0 0 C0.66 0.33 1.32 0.66 2 1 C0.33333333 2.66666667 -1.33333333 4.33333333 -3 6 C-3.721875 6.763125 -4.44375 7.52625 -5.1875 8.3125 C-7 10 -7 10 -9 10 C-9.33 11.32 -9.66 12.64 -10 14 C-10.66 14 -11.32 14 -12 14 C-12 16.64 -12 19.28 -12 22 C-12.33 22 -12.66 22 -13 22 C-13.36575421 17.42807239 -13.48822436 13.9959777 -11.4375 9.8125 C-8.14618126 6.01482453 -4.53993039 2.2699652 0 0 Z " fill="#6B696A" transform="translate(74,24)"/>
<path d="M0 0 C0.66 0 1.32 0 2 0 C1.731875 1.051875 1.46375 2.10375 1.1875 3.1875 C0.60217652 7.09284481 0.60217652 7.09284481 3.125 10 C5.77570795 12.26380533 5.77570795 12.26380533 8.625 11.9375 C11.20486955 11.01541649 11.20486955 11.01541649 14 9 C13.34 10.65 12.68 12.3 12 14 C10.37509046 14.02698189 8.75005367 14.04638757 7.125 14.0625 C5.76761719 14.07990234 5.76761719 14.07990234 4.3828125 14.09765625 C2 14 2 14 0 13 C-1.17007154 9.02175678 -1.15854031 5.12204815 -1 1 C-0.67 0.67 -0.34 0.34 0 0 Z " fill="#66480E" transform="translate(395,246)"/>
<path d="M0 0 C0.99 0.33 1.98 0.66 3 1 C2.67386719 1.71027344 2.34773437 2.42054688 2.01171875 3.15234375 C0.94026891 6.16812341 0.76378053 8.37801857 0.8125 11.5625 C0.81894531 12.49191406 0.82539063 13.42132813 0.83203125 14.37890625 C0.91497686 16.92066421 0.91497686 16.92066421 1.5078125 19.01171875 C2.11724551 21.47363462 2.09582256 23.7174854 2.0625 26.25 C2.05347656 27.14203125 2.04445312 28.0340625 2.03515625 28.953125 C2.02355469 29.62859375 2.01195312 30.3040625 2 31 C1.34 31.33 0.68 31.66 0 32 C0.01160156 31.36191406 0.02320313 30.72382813 0.03515625 30.06640625 C0.04417969 29.24011719 0.05320313 28.41382813 0.0625 27.5625 C0.07990234 26.32693359 0.07990234 26.32693359 0.09765625 25.06640625 C0.23267348 23.00836062 0.23267348 23.00836062 -1 22 C-1.10069436 19.23978992 -1.13868592 16.50999366 -1.125 13.75 C-1.12886719 12.98558594 -1.13273438 12.22117188 -1.13671875 11.43359375 C-1.12990736 7.48980151 -0.9702625 3.85024801 0 0 Z " fill="#120026" transform="translate(208,159)"/>
<path d="M0 0 C0.44730469 0.39832031 0.89460937 0.79664063 1.35546875 1.20703125 C1.96003906 1.73683594 2.56460938 2.26664062 3.1875 2.8125 C3.77917969 3.33457031 4.37085938 3.85664063 4.98046875 4.39453125 C9.75836753 8.19282215 13.77231656 9.5574713 19.8125 10.1875 C20.85180664 10.3102832 20.85180664 10.3102832 21.91210938 10.43554688 C23.60686984 10.63424293 25.30330194 10.81859203 27 11 C27 11.33 27 11.66 27 12 C17.50628172 12.35675768 9.72834756 11.84338474 2 6 C1.34 5.67 0.68 5.34 0 5 C0 3.35 0 1.7 0 0 Z " fill="#906512" transform="translate(201,347)"/>
<path d="M0 0 C5.61 0.33 11.22 0.66 17 1 C17 1.33 17 1.66 17 2 C16.154375 2.02578125 15.30875 2.0515625 14.4375 2.078125 C5.5927 2.520365 0.36664919 4.08890054 -7 9 C-7 7.68 -7 6.36 -7 5 C-6.01 4.67 -5.02 4.34 -4 4 C-3.67 3.34 -3.34 2.68 -3 2 C-2.01 2 -1.02 2 0 2 C0 1.34 0 0.68 0 0 Z " fill="#8C620D" transform="translate(210,144)"/>
<path d="M0 0 C0.58007812 0.433125 1.16015625 0.86625 1.7578125 1.3125 C6.67153344 4.88156268 6.67153344 4.88156268 12.4375 6.4375 C14.97983988 6.13104081 14.97983988 6.13104081 17 5 C17.33 4.01 17.66 3.02 18 2 C18.66 2 19.32 2 20 2 C20.33 2.99 20.66 3.98 21 5 C20.01 5.33 19.02 5.66 18 6 C18 6.66 18 7.32 18 8 C16.41676312 8.027193 14.83338938 8.04648306 13.25 8.0625 C11.92742187 8.07990234 11.92742187 8.07990234 10.578125 8.09765625 C8.2181162 8.00826198 6.25501476 7.66912821 4 7 C4 6.01 4 5.02 4 4 C3.01 4 2.02 4 1 4 C0.67 2.68 0.34 1.36 0 0 Z " fill="#8B6010" transform="translate(360,183)"/>
<path d="M0 0 C0.33 0 0.66 0 1 0 C1.04898438 1.22976563 1.09796875 2.45953125 1.1484375 3.7265625 C1.22351029 5.35939566 1.29905615 6.99220712 1.375 8.625 C1.4059375 9.43324219 1.436875 10.24148438 1.46875 11.07421875 C1.69371627 15.68602733 2.11866285 19.70946851 4 24 C4.66 24.33 5.32 24.66 6 25 C6.625 27.5625 6.625 27.5625 7 30 C2.53395541 26.00406536 0.26189579 22.83260117 -0.15478516 16.73486328 C-0.1963391 14.19506609 -0.17472121 11.66460645 -0.125 9.125 C-0.11597656 8.24585938 -0.10695312 7.36671875 -0.09765625 6.4609375 C-0.07424577 4.3071729 -0.0383801 2.15354986 0 0 Z " fill="#1A0A00" transform="translate(199,322)"/>
<path d="M0 0 C0.33 0 0.66 0 1 0 C1.06058594 1.08539063 1.12117187 2.17078125 1.18359375 3.2890625 C1.26806064 4.73438486 1.35270551 6.17969682 1.4375 7.625 C1.47681641 8.33785156 1.51613281 9.05070312 1.55664062 9.78515625 C1.80309681 13.91803682 2.23470053 17.92269024 3 22 C2.34 22 1.68 22 1 22 C1 20.68 1 19.36 1 18 C0.34 18 -0.32 18 -1 18 C-0.505 9.09 -0.505 9.09 0 0 Z " fill="#704D0D" transform="translate(198,325)"/>
<path d="M0 0 C0.33 0 0.66 0 1 0 C1.02705729 1.77074917 1.04642195 3.54161711 1.0625 5.3125 C1.07410156 6.29863281 1.08570313 7.28476562 1.09765625 8.30078125 C1 11 1 11 0 14 C-0.22179785 15.89212737 -0.40614015 17.78884472 -0.5625 19.6875 C-0.64628906 20.68136719 -0.73007813 21.67523438 -0.81640625 22.69921875 C-0.87699219 23.45847656 -0.93757812 24.21773438 -1 25 C-1.33 25 -1.66 25 -2 25 C-2.02684679 22.35409986 -2.04676357 19.70846904 -2.0625 17.0625 C-2.07087891 16.30775391 -2.07925781 15.55300781 -2.08789062 14.77539062 C-2.09652441 12.85005687 -2.05224333 10.92464419 -2 9 C-1.67 8.67 -1.34 8.34 -1 8 C-0.76924918 6.65252916 -0.58846937 5.29622435 -0.4375 3.9375 C-0.293125 2.638125 -0.14875 1.33875 0 0 Z " fill="#130128" transform="translate(209,313)"/>
<path d="M0 0 C0 0.66 0 1.32 0 2 C0.66 2 1.32 2 2 2 C4.4294516 5.6441774 4.16179575 7.71241272 4 12 C3.67 12 3.34 12 3 12 C2.690625 10.865625 2.38125 9.73125 2.0625 8.5625 C1.37075469 5.21224901 1.37075469 5.21224901 0 4 C-2.32817964 3.63239269 -4.6618385 3.29758419 -7 3 C-7 2.34 -7 1.68 -7 1 C-4.53721199 -0.231394 -2.7204945 -0.07159196 0 0 Z " fill="#604210" transform="translate(406,242)"/>
<path d="M0 0 C2.97 0 5.94 0 9 0 C7.68 0.33 6.36 0.66 5 1 C5.33 3.31 5.66 5.62 6 8 C1.3125 4.38671875 1.3125 4.38671875 0 3 C0 2.01 0 1.02 0 0 Z " fill="#674810" transform="translate(319,229)"/>
<path d="M0 0 C0.33 0.66 0.66 1.32 1 2 C-0.3921875 1.9071875 -0.3921875 1.9071875 -1.8125 1.8125 C-4.91538318 1.72956492 -4.91538318 1.72956492 -6.8125 3.1875 C-8.27538036 5.42031739 -8.64505955 7.37344067 -9 10 C-9.66 9.34 -10.32 8.68 -11 8 C-10.79278074 5.30614961 -10.30158239 3.48588274 -8.875 1.1875 C-5.99131838 -0.63883169 -3.32254207 -0.18806842 0 0 Z " fill="#1C0D00" transform="translate(406,245)"/>
<path d="M0 0 C0.33 0 0.66 0 1 0 C1.28875 0.928125 1.5775 1.85625 1.875 2.8125 C2.8875 6.09791667 2.8875 6.09791667 5 9 C7.42521494 9.58189266 7.42521494 9.58189266 10.125 9.6875 C11.49011719 9.78611328 11.49011719 9.78611328 12.8828125 9.88671875 C13.93082031 9.94279297 13.93082031 9.94279297 15 10 C15 10.33 15 10.66 15 11 C13.22950311 11.05410687 11.45853151 11.09284119 9.6875 11.125 C8.20830078 11.15980469 8.20830078 11.15980469 6.69921875 11.1953125 C4 11 4 11 1 9 C0.48828125 6.8359375 0.48828125 6.8359375 0.3125 4.375 C0.24675781 3.55773437 0.18101563 2.74046875 0.11328125 1.8984375 C0.07589844 1.27195312 0.03851563 0.64546875 0 0 Z " fill="#5A4214" transform="translate(76,454)"/>
<path d="M0 0 C0.33 0 0.66 0 1 0 C1.3152595 5.98993047 0.68219822 9.63560356 -2 15 C-3.32 14.67 -4.64 14.34 -6 14 C-5.34 14 -4.68 14 -4 14 C-1.95698846 9.47618873 -0.99043705 4.83628305 0 0 Z " fill="#5D420F" transform="translate(327,255)"/>
<path d="M0 0 C1.08667969 0.01804688 2.17335938 0.03609375 3.29296875 0.0546875 C4.54013672 0.08949219 4.54013672 0.08949219 5.8125 0.125 C5.8125 0.455 5.8125 0.785 5.8125 1.125 C5.05324219 1.15078125 4.29398437 1.1765625 3.51171875 1.203125 C2.51785156 1.25984375 1.52398437 1.3165625 0.5 1.375 C-0.48613281 1.42140625 -1.47226562 1.4678125 -2.48828125 1.515625 C-5.80447245 2.26428756 -6.38588332 3.35328203 -8.1875 6.125 C-8.8475 6.125 -9.5075 6.125 -10.1875 6.125 C-9.875 4.25 -9.875 4.25 -9.1875 2.125 C-5.66070901 -0.22619399 -4.15870515 -0.08943452 0 0 Z " fill="#220E00" transform="translate(315.1875,213.875)"/>
<path d="M0 0 C0.33 0 0.66 0 1 0 C1.33 5.61 1.66 11.22 2 17 C1.01 17 0.02 17 -1 17 C-0.67 11.39 -0.34 5.78 0 0 Z " fill="#825C12" transform="translate(246,165)"/>
<path d="M0 0 C1.98 0 3.96 0 6 0 C1.99058587 3.07388417 -0.04110792 4.1276781 -5.125 4.0625 C-6.03507813 4.05347656 -6.94515625 4.04445313 -7.8828125 4.03515625 C-8.58148438 4.02355469 -9.28015625 4.01195312 -10 4 C-10 3.67 -10 3.34 -10 3 C-9.36191406 2.95101563 -8.72382813 2.90203125 -8.06640625 2.8515625 C-7.24011719 2.77679688 -6.41382813 2.70203125 -5.5625 2.625 C-4.73878906 2.55539062 -3.91507813 2.48578125 -3.06640625 2.4140625 C-2.38449219 2.27742188 -1.70257813 2.14078125 -1 2 C-0.67 1.34 -0.34 0.68 0 0 Z " fill="#190235" transform="translate(184,271)"/>
<path d="M0 0 C0 0.66 0 1.32 0 2 C2.475 2.99 2.475 2.99 5 4 C2 5 2 5 -0.4375 4.5 C-3.06834251 3.98666488 -4.49324027 4.16441342 -7 5 C-2.25 0 -2.25 0 0 0 Z " fill="#7B5915" transform="translate(343,169)"/>
<path d="M0 0 C0.33 0.99 0.66 1.98 1 3 C-0.60875 2.7215625 -0.60875 2.7215625 -2.25 2.4375 C-5.40391546 2.0695432 -7.09818492 1.95534657 -10 3 C-10 2.34 -10 1.68 -10 1 C-6.21812119 -0.83691257 -4.05431692 -1.15837626 0 0 Z " fill="#93070C" transform="translate(346,152)"/>
<path d="M0 0 C0.33 0.66 0.66 1.32 1 2 C0.22265625 3.7265625 0.22265625 3.7265625 -0.9375 5.625 C-1.618125 6.73875 -2.29875 7.8525 -3 9 C-3.66 9 -4.32 9 -5 9 C-3.7508258 5.54074837 -2.32472205 2.85306797 0 0 Z " fill="#1F0C00" transform="translate(205,151)"/>
<path d="M0 0 C2.72647685 2.35468455 3.98756342 4.5408417 5 8 C4.546875 10.16015625 4.546875 10.16015625 4 12 C3.3291288 10.3767313 2.66342971 8.75132422 2 7.125 C1.62875 6.22007813 1.2575 5.31515625 0.875 4.3828125 C0 2 0 2 0 0 Z " fill="#828282" transform="translate(420,42)"/>
<path d="M0 0 C1.98 1.65 3.96 3.3 6 5 C5.67 5.99 5.34 6.98 5 8 C2.69 6.02 0.38 4.04 -2 2 C-1.34 1.34 -0.68 0.68 0 0 Z " fill="#876012" transform="translate(236,146)"/>
<path d="M0 0 C0.66 0 1.32 0 2 0 C0.84807997 3.4557601 0.08865366 4.19828537 -3 6 C-5.75 6.1875 -5.75 6.1875 -8 6 C-7.4225 5.7525 -6.845 5.505 -6.25 5.25 C-3.86550111 4.06009525 -3.86550111 4.06009525 -1.875 1.875 C-0.946875 0.946875 -0.946875 0.946875 0 0 Z " fill="#1C0A00" transform="translate(403,458)"/>
<path d="M0 0 C0.103125 0.639375 0.20625 1.27875 0.3125 1.9375 C0.539375 2.618125 0.76625 3.29875 1 4 C1.99 4.33 2.98 4.66 4 5 C3.38125 5.144375 2.7625 5.28875 2.125 5.4375 C-0.03258322 5.93152225 -0.03258322 5.93152225 -2 7 C-1.125 2.25 -1.125 2.25 0 0 Z " fill="#8626DC" transform="translate(232,185)"/>
</svg>
