<svg width="24" height="24" viewBox="0 0 24 24" fill="none" xmlns="http://www.w3.org/2000/svg">
<path fill-rule="evenodd" clip-rule="evenodd" d="M7.39999 2C7.39999 1.44772 7.84771 1 8.39999 1H15.6C16.1523 1 16.6 1.44772 16.6 2C16.6 2.55228 16.1523 3 15.6 3H8.39999C7.84771 3 7.39999 2.55228 7.39999 2ZM1 5.6C1 5.04771 1.44772 4.6 2 4.6H22C22.5523 4.6 23 5.04771 23 5.6C23 6.15228 22.5523 6.6 22 6.6H20.6V18.4C20.6 20.9523 18.5523 23 16 23H7.99999C5.42984 23 3.39999 20.9342 3.39999 18.3V6.6H2C1.44772 6.6 1 6.15228 1 5.6ZM5.39999 6.6V18.3C5.39999 19.8658 6.57015 21 7.99999 21H16C17.4477 21 18.6 19.8477 18.6 18.4V6.6H5.39999ZM9.3 9.2C9.85229 9.2 10.3 9.64772 10.3 10.2V17.5C10.3 18.0523 9.85229 18.5 9.3 18.5C8.74772 18.5 8.3 18.0523 8.3 17.5V10.2C8.3 9.64772 8.74772 9.2 9.3 9.2ZM14.7 9.2C15.2523 9.2 15.7 9.64772 15.7 10.2V17.5C15.7 18.0523 15.2523 18.5 14.7 18.5C14.1477 18.5 13.7 18.0523 13.7 17.5V10.2C13.7 9.64772 14.1477 9.2 14.7 9.2Z" fill="black"/>
</svg>
